<?xml version="1.0" encoding="UTF-8"?>
<svg version="1.1" xmlns="http://www.w3.org/2000/svg" width="500" height="500">
<path d="M0 0 C3.04016948 0.0161088 6.07901033 0.00001894 9.11914062 -0.01904297 C27.59283891 -0.04071807 45.5315115 2.01138034 63.41601562 6.70361328 C64.60227539 7.00847656 65.78853516 7.31333984 67.01074219 7.62744141 C75.97013134 9.98556244 84.51399772 12.76736416 93.04101562 16.39111328 C94.32346143 16.917414 95.60601626 17.44344911 96.88867188 17.96923828 C123.72192525 29.16138096 148.03109613 44.75313193 169.16601562 64.70361328 C171.37008733 66.76394118 173.58699227 68.72798695 175.91601562 70.64111328 C180.82422101 74.7782041 185.36249689 79.51143802 188.04101562 85.39111328 C188.70101563 85.39111328 189.36101562 85.39111328 190.04101562 85.39111328 C191.63015834 87.23085158 193.09232134 89.06948223 194.54101562 91.01611328 C195.20641357 91.90182007 195.20641357 91.90182007 195.88525391 92.80541992 C196.81708695 94.0507715 197.74556963 95.29863615 198.67089844 96.54882812 C199.93214798 98.24472781 201.21407567 99.92244625 202.50195312 101.59814453 C213.42860336 116.06893198 221.98727374 132.72235201 229.04101562 149.39111328 C229.35490234 150.12491211 229.66878906 150.85871094 229.9921875 151.61474609 C253.34430418 207.03619261 255.1082134 274.51731955 232.58398438 330.59423828 C232.3292334 331.2175 232.07448242 331.84076172 231.81201172 332.48291016 C231.02243144 334.43710885 230.27373963 336.40369513 229.52929688 338.37548828 C221.24040534 359.91329078 209.02240323 379.1945754 194.97851562 397.39111328 C194.5130835 397.99761719 194.04765137 398.60412109 193.56811523 399.22900391 C192.44123717 400.6563129 191.24693787 402.0299312 190.04101562 403.39111328 C189.38101562 403.39111328 188.72101563 403.39111328 188.04101562 403.39111328 C187.82703125 403.92091797 187.61304688 404.45072266 187.39257812 404.99658203 C185.52147281 408.31157498 183.00452557 410.94436675 180.41601562 413.70361328 C179.87912109 414.27958252 179.34222656 414.85555176 178.7890625 415.44897461 C168.44768794 426.42662236 168.44768794 426.42662236 162.04101562 429.39111328 C162.04101562 430.05111328 162.04101562 430.71111328 162.04101562 431.39111328 C160.71850586 432.65283203 160.71850586 432.65283203 158.84960938 434.07861328 C158.16092773 434.60696777 157.47224609 435.13532227 156.76269531 435.6796875 C156.00891602 436.24445801 155.25513672 436.80922852 154.47851562 437.39111328 C153.69766602 437.97779785 152.91681641 438.56448242 152.11230469 439.16894531 C149.76329556 440.9209186 147.40395132 442.6579863 145.04101562 444.39111328 C144.44369629 444.83551758 143.84637695 445.27992188 143.23095703 445.73779297 C96.75455879 479.98938941 35.96173862 493.67383205 -20.95898438 488.39111328 C-21.79461914 488.3140918 -22.63025391 488.23707031 -23.49121094 488.15771484 C-68.6350267 483.66537118 -110.3787841 465.74162877 -146.36572266 438.58496094 C-147.78949973 437.5181099 -149.23059209 436.47445794 -150.67382812 435.43408203 C-152.4718873 434.13530818 -154.22351343 432.77240648 -155.95898438 431.39111328 C-155.95898438 430.73111328 -155.95898438 430.07111328 -155.95898438 429.39111328 C-156.48878906 429.17712891 -157.01859375 428.96314453 -157.56445312 428.74267578 C-160.87944608 426.87157046 -163.51223784 424.35462323 -166.27148438 421.76611328 C-166.84745361 421.22921875 -167.42342285 420.69232422 -168.0168457 420.13916016 C-178.99449346 409.7977856 -178.99449346 409.7977856 -181.95898438 403.39111328 C-182.61898437 403.39111328 -183.27898437 403.39111328 -183.95898438 403.39111328 C-185.22070312 402.06860352 -185.22070312 402.06860352 -186.64648438 400.19970703 C-187.17508057 399.51046143 -187.70367676 398.82121582 -188.24829102 398.11108398 C-188.81281982 397.35786865 -189.37734863 396.60465332 -189.95898438 395.82861328 C-190.54349365 395.05283936 -191.12800293 394.27706543 -191.73022461 393.4777832 C-210.17071641 368.80565957 -225.21207682 341.39277345 -232.95898438 311.39111328 C-233.15298828 310.65570313 -233.34699219 309.92029297 -233.546875 309.16259766 C-246.41768699 259.89577353 -245.66081295 205.35742824 -226.33398438 157.78173828 C-225.46803729 155.64639148 -224.64833002 153.49112933 -223.89648438 151.31298828 C-218.6193754 136.18010226 -210.01874474 121.55796501 -200.95898438 108.39111328 C-200.6015918 107.86678711 -200.24419922 107.34246094 -199.87597656 106.80224609 C-194.44048312 98.86362433 -188.61238656 91.39821088 -182.30664062 84.13330078 C-179.99340944 81.51229107 -179.99340944 81.51229107 -178.26757812 79.02392578 C-177.83574219 78.48509766 -177.40390625 77.94626953 -176.95898438 77.39111328 C-176.29898438 77.39111328 -175.63898438 77.39111328 -174.95898438 77.39111328 C-174.95898438 76.73111328 -174.95898438 76.07111328 -174.95898438 75.39111328 C-174.29898438 75.39111328 -173.63898438 75.39111328 -172.95898438 75.39111328 C-172.69730469 74.79169922 -172.435625 74.19228516 -172.16601562 73.57470703 C-170.8867825 71.26049564 -169.69647995 70.09451883 -167.64648438 68.45361328 C-165.50883696 66.72908425 -163.55657205 64.98668889 -161.61523438 63.03564453 C-153.83087782 55.28563073 -145.13327927 48.41300729 -135.95898438 42.39111328 C-135.42128418 42.03807129 -134.88358398 41.6850293 -134.32958984 41.32128906 C-130.23048988 38.63851222 -126.09995162 36.0087445 -121.95898438 33.39111328 C-121.15074219 32.86646484 -120.3425 32.34181641 -119.50976562 31.80126953 C-100.04514939 19.5382216 -77.50463694 11.47734778 -55.27148438 6.01611328 C-54.36060059 5.78964111 -53.4497168 5.56316895 -52.51123047 5.32983398 C-35.16096251 1.32418909 -17.76848108 -0.11141009 0 0 Z M-7.33398438 15.76611328 C-11.71468203 22.84262488 -11.69843793 30.30334006 -10.95898438 38.39111328 C-9.64831157 43.17953723 -7.00812101 47.40429143 -2.98242188 50.41845703 C3.68772988 53.6247655 12.00899337 54.24456172 19.10351562 52.22314453 C23.1406531 50.48945445 26.01129496 47.98249976 28.41601562 44.26611328 C29.19912951 42.24617556 29.19912951 42.24617556 29.04101562 39.39111328 C25.74101562 38.40111328 22.44101562 37.41111328 19.04101562 36.39111328 C18.42226563 37.36048828 17.80351562 38.32986328 17.16601562 39.32861328 C15.04101562 42.39111328 15.04101562 42.39111328 13.04101562 43.39111328 C6.57042739 43.74405446 6.57042739 43.74405446 3.04101562 41.39111328 C1.88306085 37.91724896 1.87271713 35.11342024 1.85351562 31.45361328 C1.83933594 30.22771484 1.82515625 29.00181641 1.81054688 27.73876953 C2.02589655 24.61072421 2.32764999 22.96116173 4.04101562 20.39111328 C6.69558493 18.32644827 8.12923322 18.39426391 11.54101562 18.51611328 C15.04101562 19.39111328 15.04101562 19.39111328 16.85351562 21.51611328 C18.87283862 23.65088775 18.87283862 23.65088775 21.50585938 23.43017578 C24.03908392 23.16726047 26.53291737 22.83146641 29.04101562 22.39111328 C28.53417018 17.95621565 27.24255913 15.51056592 24.04101562 12.39111328 C13.74083847 6.96011078 1.07868727 7.35344164 -7.33398438 15.76611328 Z M-52.95898438 28.39111328 C-54.31976473 30.91484229 -54.31976473 30.91484229 -54.95898438 33.39111328 C-55.61898437 32.40111328 -56.27898437 31.41111328 -56.95898438 30.39111328 C-59.92898437 31.05111328 -62.89898437 31.71111328 -65.95898438 32.39111328 C-65.34652045 38.79210816 -63.92671988 44.67567448 -62.08398438 50.82861328 C-61.82746094 51.73804687 -61.5709375 52.64748047 -61.30664062 53.58447266 C-61.05011719 54.4475 -60.79359375 55.31052734 -60.52929688 56.19970703 C-60.30000488 56.98144287 -60.07071289 57.76317871 -59.83447266 58.56860352 C-59.54556152 59.17003174 -59.25665039 59.77145996 -58.95898438 60.39111328 C-55.74180546 61.46350625 -54.90614825 61.32720813 -51.77148438 60.45361328 C-50.51335937 60.10298828 -49.25523437 59.75236328 -47.95898438 59.39111328 C-48.27080507 57.97429694 -48.58347175 56.55766677 -48.89648438 55.14111328 C-49.07050781 54.35220703 -49.24453125 53.56330078 -49.42382812 52.75048828 C-49.75571429 51.28728213 -50.11413812 49.82950044 -50.51367188 48.38330078 C-51.01612466 46.1354857 -51.12723628 44.06818542 -51.14648438 41.76611328 C-51.16066406 40.99009766 -51.17484375 40.21408203 -51.18945312 39.41455078 C-50.95898438 37.39111328 -50.95898438 37.39111328 -48.95898438 35.39111328 C-46.83398438 34.76611328 -46.83398438 34.76611328 -44.95898438 34.39111328 C-44.95898438 31.75111328 -44.95898438 29.11111328 -44.95898438 26.39111328 C-48.27956769 26.39111328 -50.04442099 26.821733 -52.95898438 28.39111328 Z M43.04101562 30.39111328 C43.71966322 33.46995579 43.71966322 33.46995579 45.97851562 34.64111328 C49.78900336 35.57429395 52.88385004 35.13872837 56.73632812 34.58251953 C59.04101562 34.39111328 59.04101562 34.39111328 62.04101562 35.39111328 C62.79101562 37.39111328 62.79101562 37.39111328 63.04101562 39.39111328 C62.04101562 40.39111328 62.04101562 40.39111328 60.26269531 40.45703125 C59.50375977 40.4327002 58.74482422 40.40836914 57.96289062 40.38330078 C56.71572266 40.35816406 56.71572266 40.35816406 55.44335938 40.33251953 C53.69053077 40.28863428 51.93788326 40.23669492 50.18554688 40.17626953 C45.35500746 40.09439598 41.86790297 40.05406751 38.04101562 43.39111328 C36.92783519 47.14809724 36.71025841 49.42089212 37.97851562 53.14111328 C40.90637182 56.33513823 43.80381257 57.5875058 48.04101562 58.39111328 C51.89230002 58.37884804 55.56816075 58.12754072 59.04101562 56.39111328 C59.04101562 57.71111328 59.04101562 59.03111328 59.04101562 60.39111328 C62.66074965 61.7073802 65.13668693 62.39111328 69.04101562 62.39111328 C69.24597656 61.41529297 69.4509375 60.43947266 69.66210938 59.43408203 C69.93152344 58.16177734 70.2009375 56.88947266 70.47851562 55.57861328 C70.74535156 54.31404297 71.0121875 53.04947266 71.28710938 51.74658203 C72.04101562 48.39111328 72.04101562 48.39111328 73.04101562 45.39111328 C73.49787935 41.97909306 73.5912541 38.79605434 73.04101562 35.39111328 C68.44691929 29.7089415 61.6723426 27.92606086 54.57226562 27.10595703 C49.87882011 26.92604162 46.87731942 27.42107164 43.04101562 30.39111328 Z M92.04101562 39.39111328 C90.7805647 40.97088604 90.7805647 40.97088604 89.58007812 43.04736328 C89.10828125 43.82337891 88.63648438 44.59939453 88.15039062 45.39892578 C87.415625 46.63255859 87.415625 46.63255859 86.66601562 47.89111328 C85.94285156 49.07833984 85.94285156 49.07833984 85.20507812 50.28955078 C82.23196856 55.21780304 79.54811312 60.21057058 77.04101562 65.39111328 C78.68070312 66.38111328 78.68070312 66.38111328 80.35351562 67.39111328 C80.96839844 67.76236328 81.58328125 68.13361328 82.21679688 68.51611328 C84.15463489 69.60735327 84.15463489 69.60735327 87.04101562 69.39111328 C88.98487939 66.2605885 90.71316753 63.09783595 92.37304688 59.81103516 C93.47840646 57.79866449 94.48297356 56.08046971 96.04101562 54.39111328 C99.83789062 53.41845703 99.83789062 53.41845703 103.04101562 53.39111328 C103.93009028 56.25938429 104.4214907 58.44077978 103.27978516 61.29248047 C102.12478013 63.33825709 100.89476943 65.30355964 99.60351562 67.26611328 C99.16974609 67.95447266 98.73597656 68.64283203 98.2890625 69.35205078 C97.22149644 71.04138608 96.13325457 72.71762437 95.04101562 74.39111328 C98.05988806 77.87442763 100.61011091 79.18268472 105.04101562 80.39111328 C105.67910156 79.31990234 106.3171875 78.24869141 106.97460938 77.14501953 C107.8091675 75.74783795 108.64380713 74.35070504 109.47851562 72.95361328 C109.89939453 72.2465625 110.32027344 71.53951172 110.75390625 70.81103516 C113.92773438 65.50439453 113.92773438 65.50439453 115.04101562 64.39111328 C117.04059926 64.35030545 119.04146816 64.34856972 121.04101562 64.39111328 C122.01787245 67.53182155 122.20763591 68.98805647 120.93164062 72.07470703 C120.11953125 73.43789062 120.11953125 73.43789062 119.29101562 74.82861328 C118.73671875 75.78251953 118.18242187 76.73642578 117.61132812 77.71923828 C117.093125 78.60095703 116.57492187 79.48267578 116.04101562 80.39111328 C115.00328587 82.37567675 114.02075736 84.37719972 113.04101562 86.39111328 C114.32914904 87.22989783 115.62164818 88.06198111 116.91601562 88.89111328 C117.6353125 89.35517578 118.35460937 89.81923828 119.09570312 90.29736328 C120.95962029 91.55447829 120.95962029 91.55447829 123.04101562 91.39111328 C124.50052682 88.80843915 125.95866444 86.22500588 127.41601562 83.64111328 C127.82851563 82.91150391 128.24101562 82.18189453 128.66601562 81.43017578 C129.065625 80.72119141 129.46523438 80.01220703 129.87695312 79.28173828 C130.24353027 78.63237305 130.61010742 77.98300781 130.98779297 77.31396484 C131.33535645 76.67942383 131.68291992 76.04488281 132.04101562 75.39111328 C132.40533691 74.73208008 132.7696582 74.07304688 133.14501953 73.39404297 C134.62735671 70.08039332 134.79712622 66.8872577 134.04101562 63.39111328 C131.22758764 59.81729935 129.64803529 58.6865051 125.19335938 57.86767578 C122.46907699 57.60755075 119.77655291 57.44465583 117.04101562 57.39111328 C116.45320313 55.75142578 116.45320313 55.75142578 115.85351562 54.07861328 C114.73654169 51.53582468 114.01639709 50.36866697 111.91601562 48.45361328 C107.92126532 46.97729252 104.25226551 47.1433927 100.04101562 47.39111328 C100.37101562 46.07111328 100.70101563 44.75111328 101.04101562 43.39111328 C99.37039063 42.40111328 99.37039063 42.40111328 97.66601562 41.39111328 C97.03953125 41.01986328 96.41304688 40.64861328 95.76757812 40.26611328 C94.06628895 39.2404298 94.06628895 39.2404298 92.04101562 39.39111328 Z M-103.02148438 49.14111328 C-105.49353051 53.28777131 -106.22773583 56.58718097 -105.95898438 61.39111328 C-104.32771805 67.40640784 -101.21381468 71.19159967 -95.95898438 74.39111328 C-90.21844073 76.33706028 -87.23230723 75.36495135 -81.77148438 72.82861328 C-76.9912641 70.22122041 -73.81979885 68.02760571 -70.95898438 63.39111328 C-70.09355738 60.66997825 -70.09355738 60.66997825 -69.95898438 58.39111328 C-76.00412769 59.97990095 -79.16257491 61.2388433 -82.95898438 66.39111328 C-85.39648438 67.51611328 -85.39648438 67.51611328 -87.95898438 67.39111328 C-90.77148438 64.95361328 -90.77148438 64.95361328 -92.95898438 62.39111328 C-91.97865234 62.02373047 -91.97865234 62.02373047 -90.97851562 61.64892578 C-87.10478822 60.0352903 -83.38966229 58.15944545 -79.64648438 56.26611328 C-78.53563477 55.70730469 -78.53563477 55.70730469 -77.40234375 55.13720703 C-75.58697221 54.22366522 -73.77285155 53.30763841 -71.95898438 52.39111328 C-73.56029589 47.99304111 -75.41203927 45.5055041 -78.95898438 42.39111328 C-87.85084751 39.4271589 -96.5698222 42.46569403 -103.02148438 49.14111328 Z M-137.95898438 70.39111328 C-141.42060919 74.60119751 -142.86468581 77.92179629 -142.95898438 83.39111328 C-141.93557415 88.93907399 -139.447899 92.83392791 -134.97070312 96.25048828 C-131.31363601 98.32400983 -128.12739213 98.90028361 -123.95898438 98.39111328 C-117.33457233 96.27970703 -111.36950715 92.60358971 -107.95898438 86.39111328 C-107.23472152 83.6204433 -107.06037672 81.28079514 -106.95898438 78.39111328 C-110.39654426 79.63245435 -113.30779121 80.83460558 -115.95898438 83.39111328 C-116.76320517 85.98967061 -116.76320517 85.98967061 -116.95898438 88.39111328 C-118.39538609 88.58684936 -119.83317942 88.77239144 -121.27148438 88.95361328 C-122.07199219 89.05802734 -122.8725 89.16244141 -123.69726562 89.27001953 C-125.95898438 89.39111328 -125.95898438 89.39111328 -128.95898438 88.39111328 C-125.3030823 84.56341129 -121.45356361 81.35604797 -117.20898438 78.20361328 C-112.98912686 75.33740573 -112.98912686 75.33740573 -109.95898438 71.39111328 C-110.45398438 70.40111328 -110.45398438 70.40111328 -110.95898438 69.39111328 C-111.61898437 69.39111328 -112.27898437 69.39111328 -112.95898438 69.39111328 C-112.95898438 68.73111328 -112.95898438 68.07111328 -112.95898438 67.39111328 C-121.78585404 60.70409081 -129.96974238 64.17725839 -137.95898438 70.39111328 Z M142.67700195 83.73168945 C141.80712646 84.60929932 140.93725098 85.48690918 140.04101562 86.39111328 C133.37434896 93.05777995 126.70768229 99.72444661 120.04101562 106.39111328 C121.32164047 108.09861308 122.65869119 109.76484924 124.04101562 111.39111328 C124.70101563 111.39111328 125.36101562 111.39111328 126.04101562 111.39111328 C126.37101562 112.38111328 126.70101563 113.37111328 127.04101562 114.39111328 C128.14653452 113.45520824 129.25037016 112.5173147 130.35351562 111.57861328 C131.27583984 110.79550781 131.27583984 110.79550781 132.21679688 109.99658203 C134.05534293 108.42810083 134.05534293 108.42810083 135.64648438 106.69189453 C137.04101562 105.39111328 137.04101562 105.39111328 139.04101562 105.39111328 C139.26789063 106.27798828 139.49476563 107.16486328 139.72851562 108.07861328 C141.28409266 112.00459343 142.67908234 113.83312056 146.04101562 116.39111328 C150.14101247 117.76905037 153.15460091 117.70396553 157.22851562 116.26611328 C160.26979761 114.23859196 162.59387499 112.10280966 165.04101562 109.39111328 C165.61851562 108.81361328 166.19601562 108.23611328 166.79101562 107.64111328 C168.77380862 104.07208589 169.16432407 100.44578508 169.04101562 96.39111328 C167.50171832 92.6643935 165.54095166 90.39107673 162.04101562 88.39111328 C158.88983238 87.67065961 158.88983238 87.67065961 156.04101562 87.39111328 C156.30914062 86.85486328 156.57726562 86.31861328 156.85351562 85.76611328 C157.32353684 83.05190798 157.32353684 83.05190798 154.72851562 80.14111328 C153.84164062 79.23361328 152.95476562 78.32611328 152.04101562 77.39111328 C148.11890835 77.39111328 145.32747692 81.10749204 142.67700195 83.73168945 Z M-155.95898438 87.39111328 C-158.72797576 89.89213776 -160.60221622 91.58558632 -160.95898438 95.39111328 C-160.57991156 97.57814713 -160.57991156 97.57814713 -159.95898438 99.39111328 C-161.27898437 98.73111328 -162.59898437 98.07111328 -163.95898438 97.39111328 C-165.93898438 99.37111328 -167.91898437 101.35111328 -169.95898438 103.39111328 C-168.61886793 106.4330954 -167.2085425 108.32339963 -164.69335938 110.48486328 C-164.05011719 111.04044922 -163.406875 111.59603516 -162.74414062 112.16845703 C-162.07253906 112.73693359 -161.4009375 113.30541016 -160.70898438 113.89111328 C-160.05285156 114.45958984 -159.39671875 115.02806641 -158.72070312 115.61376953 C-154.95484588 118.84057763 -151.14830581 121.73700902 -146.95898438 124.39111328 C-144.97898437 122.08111328 -142.99898437 119.77111328 -140.95898438 117.39111328 C-142.82632263 113.65643676 -143.8150907 112.41590512 -146.89648438 109.89111328 C-153.73574807 104.26629828 -153.73574807 104.26629828 -154.27148438 99.76611328 C-153.95898438 97.39111328 -153.95898438 97.39111328 -151.95898438 95.39111328 C-152.18641743 92.43448362 -152.57134375 90.8407764 -154.52148438 88.57861328 C-154.99585938 88.18673828 -155.47023438 87.79486328 -155.95898438 87.39111328 Z M-97.95898438 125.39111328 C-98.90515625 126.10654297 -99.85132813 126.82197266 -100.82617188 127.55908203 C-101.53 128.16365234 -102.23382813 128.76822266 -102.95898438 129.39111328 C-102.95898438 130.05111328 -102.95898438 130.71111328 -102.95898438 131.39111328 C-103.61898437 131.39111328 -104.27898437 131.39111328 -104.95898438 131.39111328 C-107.50638723 133.85383792 -109.68798486 136.67456529 -111.95898438 139.39111328 C-113.02052734 140.60541016 -113.02052734 140.60541016 -114.10351562 141.84423828 C-137.51292046 169.23037213 -149.09538992 205.67686216 -146.95898438 241.39111328 C-145.45551766 255.12867191 -137.29966702 268.64994149 -128.95898438 279.39111328 C-128.22808594 280.35017578 -128.22808594 280.35017578 -127.48242188 281.32861328 C-126.36979238 282.73404001 -125.17338091 284.07262561 -123.95898438 285.39111328 C-123.29898438 285.39111328 -122.63898438 285.39111328 -121.95898438 285.39111328 C-121.76046875 285.95056641 -121.56195313 286.51001953 -121.35742188 287.08642578 C-119.3997183 290.31280877 -116.62993541 292.15119645 -113.58398438 294.26611328 C-112.64123657 294.9258313 -112.64123657 294.9258313 -111.67944336 295.59887695 C-98.98944471 304.30274004 -84.99812975 309.05046134 -70.14648438 312.64111328 C-69.42638184 312.81739258 -68.7062793 312.99367188 -67.96435547 313.17529297 C-63.98385202 314.09620372 -60.46174713 314.42822499 -56.39648438 314.26611328 C-54.07617187 314.43017578 -54.07617187 314.43017578 -51.95898438 315.39111328 C-49.60067943 318.60025766 -47.87224667 321.93282688 -46.08007812 325.47705078 C-40.87023275 335.56754115 -32.21327209 343.99853607 -22.95898438 350.39111328 C-21.76402344 351.24382812 -21.76402344 351.24382812 -20.54492188 352.11376953 C9.12527324 371.32500206 50.2538196 374.31337582 84.19873047 367.78369141 C90.90600081 366.29389028 97.48508996 364.44041404 104.04101562 362.39111328 C104.74178223 362.17551758 105.44254883 361.95992188 106.16455078 361.73779297 C121.45432977 357.36741062 121.45432977 357.36741062 133.36132812 348.10986328 C134.16909358 344.87880146 134.71782061 341.69210512 135.16601562 338.39111328 C135.33359375 337.19486328 135.50117188 335.99861328 135.67382812 334.76611328 C135.98276784 331.92649716 136.06957585 329.23984351 136.04101562 326.39111328 C130.34086105 327.48443123 124.67264509 328.6870875 119.01367188 329.97705078 C105.86797486 332.96206358 92.76084355 335.7962214 79.41601562 337.76611328 C78.3706665 337.92128418 77.32531738 338.07645508 76.24829102 338.23632812 C63.29226313 340.05010998 50.36404256 340.60142255 37.29101562 340.57861328 C36.2415274 340.5772084 36.2415274 340.5772084 35.1708374 340.57577515 C10.87532939 340.5055089 -17.82335113 338.39988175 -36.63867188 320.96923828 C-37.95898438 319.39111328 -37.95898438 319.39111328 -38.95898438 316.39111328 C-38.29181396 316.35671143 -37.62464355 316.32230957 -36.93725586 316.28686523 C-14.3886116 315.0441176 6.7460925 311.58353912 27.80322266 303.22802734 C29.93619565 302.43031499 32.06225658 301.80233169 34.25585938 301.19580078 C38.30708713 299.8998749 41.0540465 298.55660388 44.04101562 295.39111328 C46.80951759 288.07316082 47.47887866 280.14462867 48.04101562 272.39111328 C40.42200176 272.91032713 33.25820905 274.38474003 25.85351562 276.20361328 C1.02412121 282.10668443 -23.48412555 285.44483309 -48.95898438 286.39111328 C-49.53966567 259.98719312 -36.28405237 240.77148555 -18.84960938 222.16455078 C-14.01425921 217.35980409 -8.48260827 213.36039468 -2.95898438 209.39111328 C-2.69601563 210.28701172 -2.43304688 211.18291016 -2.16210938 212.10595703 C0.48711886 219.33972634 5.98562212 224.81264502 12.04101562 229.39111328 C14.66166037 226.77046853 15.19928882 224.36801376 16.35351562 220.84423828 C16.67509644 219.87100616 16.67509644 219.87100616 17.00317383 218.87811279 C17.68811089 216.80092333 18.3646778 214.72111666 19.04101562 212.64111328 C19.49619125 211.25551465 19.95191436 209.87009574 20.40820312 208.48486328 C21.25146246 205.92246923 22.09084903 203.35892834 22.92773438 200.79443359 C23.29511719 199.67133789 23.6625 198.54824219 24.04101562 197.39111328 C24.53142334 195.7312439 24.53142334 195.7312439 25.03173828 194.0378418 C26.04101562 191.39111328 26.04101562 191.39111328 28.50195312 189.96533203 C29.94441406 189.52640625 29.94441406 189.52640625 31.41601562 189.07861328 C32.85074219 188.62035156 32.85074219 188.62035156 34.31445312 188.15283203 C46.58104192 184.72591969 59.37028908 185.16235439 71.04101562 190.39111328 C72.34619141 190.95185547 72.34619141 190.95185547 73.67773438 191.52392578 C79.11946672 194.04062282 83.63720224 197.19041957 88.22851562 201.03564453 C89.93074428 202.59074489 89.93074428 202.59074489 92.04101562 202.39111328 C91.65173099 203.9482518 91.26226152 205.50534426 90.87207031 207.06225586 C90.5195636 208.47543603 90.17006257 209.88936863 89.82324219 211.30395508 C88.83744523 215.30434665 87.79937999 219.2785882 86.66210938 223.23876953 C82.58534459 237.76026889 79.268286 254.50035278 87.04101562 268.39111328 C91.25720446 275.25042267 95.39807984 279.9197524 102.04101562 284.39111328 C114.00577741 253.11957679 121.78032302 221.85869975 108.41210938 189.44970703 C102.88077941 177.11058633 95.63847469 166.72738474 84.04101562 159.39111328 C83.33976563 158.93994141 82.63851562 158.48876953 81.91601562 158.02392578 C67.63045839 149.86764479 50.48005751 150.22909181 35.01757812 154.42626953 C31.99232503 155.3417203 29.01063126 156.31029911 26.04101562 157.39111328 C25.83347656 156.42173828 25.6259375 155.45236328 25.41210938 154.45361328 C21.22936057 135.8768749 14.01394881 117.93415216 -1.95898438 106.39111328 C-35.02932615 85.69274859 -71.02424483 103.67075924 -97.95898438 125.39111328 Z M175.35351562 115.51611328 C174.47308594 116.15291016 173.59265625 116.78970703 172.68554688 117.44580078 C171.81285156 118.08775391 170.94015625 118.72970703 170.04101562 119.39111328 C169.26113281 119.95056641 168.48125 120.51001953 167.67773438 121.08642578 C164.478595 123.41413597 162.26466843 125.05563408 160.04101562 128.39111328 C159.54193017 132.13425417 159.89822707 134.09363712 161.54101562 137.51611328 C164.62375897 141.06126813 167.75464253 142.62246419 172.04101562 144.39111328 C171.05101562 145.38111328 170.06101562 146.37111328 169.04101562 147.39111328 C170.69101562 149.70111328 172.34101563 152.01111328 174.04101562 154.39111328 C177.64057493 153.0633381 180.70200936 151.45936257 183.90429688 149.35205078 C185.23364258 148.48193359 185.23364258 148.48193359 186.58984375 147.59423828 C187.50185547 146.99095703 188.41386719 146.38767578 189.35351562 145.76611328 C190.28486328 145.15509766 191.21621094 144.54408203 192.17578125 143.91455078 C194.46682939 142.41068329 196.75510282 140.90277042 199.04101562 139.39111328 C198.27698147 135.91957947 196.95914651 133.3934051 195.04101562 130.39111328 C189.63508565 131.08518386 186.22101992 133.81008606 181.85742188 136.89501953 C178.64923173 138.59923149 176.62069015 138.68107219 173.04101562 138.39111328 C171.97851562 136.57861328 171.97851562 136.57861328 171.04101562 134.39111328 C172.1552561 131.04839186 172.57103194 130.77222281 175.41992188 129.01611328 C176.09345703 128.58814453 176.76699219 128.16017578 177.4609375 127.71923828 C178.89214593 126.83207171 180.32444399 125.94666062 181.7578125 125.06298828 C182.43005859 124.63501953 183.10230469 124.20705078 183.79492188 123.76611328 C184.4169751 123.38197266 185.03902832 122.99783203 185.67993164 122.60205078 C186.12908936 122.20244141 186.57824707 121.80283203 187.04101562 121.39111328 C187.04101562 117.33630698 185.49231471 115.54278353 183.04101562 112.39111328 C179.34246449 112.39111328 178.31348626 113.36932139 175.35351562 115.51611328 Z M-183.95898438 122.39111328 C-188.55973092 128.01527239 -192.95898438 134.89435353 -192.95898438 142.39111328 C-191.77090257 145.40940978 -191.77090257 145.40940978 -189.95898438 147.39111328 C-186.32595751 144.13070456 -184.53721207 142.24822595 -183.95898438 137.39111328 C-183.30751588 135.05349105 -182.64371832 132.71920871 -181.95898438 130.39111328 C-180.63898438 130.06111328 -179.31898438 129.73111328 -177.95898438 129.39111328 C-176.52123764 133.18893485 -177.47200578 135.43842817 -178.89648438 139.14111328 C-180.67825304 144.24968077 -181.82297984 148.0151415 -180.95898438 153.39111328 C-178.41665729 156.38208632 -176.80151467 157.23313885 -172.95898438 157.95361328 C-168.87198964 157.18730177 -167.5412233 155.60146438 -164.95898438 152.39111328 C-162.86283858 148.79772049 -161.40799923 145.54450073 -160.95898438 141.39111328 C-161.28898437 140.40111328 -161.61898437 139.41111328 -161.95898438 138.39111328 C-160.30898437 138.39111328 -158.65898437 138.39111328 -156.95898438 138.39111328 C-155.63898438 135.75111328 -154.31898438 133.11111328 -152.95898438 130.39111328 C-153.58804688 130.08818359 -154.21710938 129.78525391 -154.86523438 129.47314453 C-159.11185605 127.3946023 -163.17678036 125.31077658 -167.08398438 122.64111328 C-172.92458654 118.91256725 -178.13170297 118.1348231 -183.95898438 122.39111328 Z M195.04101562 155.39111328 C192.95139327 158.52554682 192.78734009 159.2611502 192.85351562 162.82861328 C192.85996094 163.59044922 192.86640625 164.35228516 192.87304688 165.13720703 C193.03695154 167.33657894 193.50263855 169.25896916 194.04101562 171.39111328 C194.07989911 173.72412261 194.08587912 176.05821129 194.04101562 178.39111328 C191.60351562 178.01611328 191.60351562 178.01611328 189.04101562 177.39111328 C187.6714889 174.65205983 187.91480201 172.42023996 188.04101562 169.39111328 C188.37101562 168.73111328 188.70101563 168.07111328 189.04101562 167.39111328 C188.04733765 165.36196484 188.04733765 165.36196484 186.60351562 163.26611328 C186.13042969 162.54166016 185.65734375 161.81720703 185.16992188 161.07080078 C184.79738281 160.51650391 184.42484375 159.96220703 184.04101562 159.39111328 C181.150484 161.64934111 180.12888623 162.84192201 179.54101562 166.51611328 C180.38124135 173.02786267 182.94341792 180.1903162 187.04101562 185.39111328 C190.30347928 187.56608905 192.23222759 188.40728904 196.16601562 188.32861328 C199.6575375 187.19007354 201.02715686 186.48935753 203.04101562 183.39111328 C203.52986537 179.64556029 203.44954524 176.01285205 202.52539062 172.34423828 C201.78755044 169.36907626 201.98238773 166.43976375 202.04101562 163.39111328 C203.36101562 163.72111328 204.68101562 164.05111328 206.04101562 164.39111328 C207.16601562 170.14111328 207.16601562 170.14111328 206.04101562 172.39111328 C207.0346936 174.42026173 207.0346936 174.42026173 208.47851562 176.51611328 C208.95160156 177.24056641 209.4246875 177.96501953 209.91210938 178.71142578 C210.28464844 179.26572266 210.6571875 179.82001953 211.04101562 180.39111328 C213.32586149 178.01106551 214.01619824 176.56838035 214.47851562 173.26611328 C213.74824821 166.79803049 211.66317617 161.42921242 207.60351562 156.32861328 C203.12588342 152.94308649 199.99156944 152.71513824 195.04101562 155.39111328 Z M-217.14648438 162.64111328 C-221.45273575 169.17473606 -223.01609795 175.58090945 -221.95898438 183.39111328 C-220.57422342 188.93015709 -217.93491742 191.74874451 -213.14648438 194.76611328 C-205.62991804 198.79323714 -199.34946073 200.304974 -190.95898438 198.39111328 C-184.00685472 194.78630531 -180.54898388 189.66777855 -177.95898438 182.39111328 C-176.64927952 176.94832345 -176.77176696 172.66031886 -178.95898438 167.39111328 C-181.25097841 164.43060454 -181.25097841 164.43060454 -183.95898438 162.39111328 C-184.94898438 162.39111328 -185.93898437 162.39111328 -186.95898438 162.39111328 C-188.42846528 164.15843427 -188.42846528 164.15843427 -189.64648438 166.39111328 C-190.08347656 167.13361328 -190.52046875 167.87611328 -190.97070312 168.64111328 C-191.29683594 169.21861328 -191.62296875 169.79611328 -191.95898438 170.39111328 C-191.29898438 170.88611328 -190.63898438 171.38111328 -189.95898438 171.89111328 C-187.51239424 174.94935095 -187.35592898 176.66493545 -187.58398438 180.48486328 C-187.95898438 182.39111328 -187.95898438 182.39111328 -189.45898438 184.89111328 C-193.63992978 187.39968052 -197.55482859 186.95730939 -202.11523438 185.88330078 C-206.64729142 184.41207331 -209.71107614 182.78919461 -211.95898438 178.39111328 C-212.1767413 175.53793921 -211.88711334 173.09913514 -210.95898438 170.39111328 C-208.67231742 168.0282241 -207.0905587 167.43497139 -203.95898438 166.39111328 C-203.29898438 163.09111328 -202.63898438 159.79111328 -201.95898438 156.39111328 C-208.93229415 155.8332485 -212.33869202 157.69595543 -217.14648438 162.64111328 Z M211.04101562 247.39111328 C212.04101562 250.39111328 212.04101562 250.39111328 212.04101562 250.39111328 Z M-169.90820312 349.02392578 C-170.67455078 349.58337891 -171.44089844 350.14283203 -172.23046875 350.71923828 C-173.02775391 351.31220703 -173.82503906 351.90517578 -174.64648438 352.51611328 C-175.42443359 353.08587891 -176.20238281 353.65564453 -177.00390625 354.24267578 C-182.01656614 357.92169221 -186.99117979 361.65183219 -191.95898438 365.39111328 C-191.64960938 366.00986328 -191.34023437 366.62861328 -191.02148438 367.26611328 C-190.33398438 368.64111328 -189.64648438 370.01611328 -188.95898438 371.39111328 C-185.36450717 369.66640897 -182.09741411 367.59091836 -178.76367188 365.41455078 C-176.95898438 364.39111328 -176.95898438 364.39111328 -174.95898438 364.39111328 C-172.95046854 367.24938582 -171.89279546 369.42475511 -172.13476562 372.95751953 C-172.79754041 376.5951918 -173.55938166 380.14529306 -174.68945312 383.66845703 C-175.96074592 387.68266034 -176.13914581 389.03079042 -174.20898438 392.89111328 C-173.46648437 393.71611328 -172.72398437 394.54111328 -171.95898438 395.39111328 C-171.29898438 395.39111328 -170.63898438 395.39111328 -169.95898438 395.39111328 C-167.65589568 388.82456872 -166.62205165 383.35438966 -166.95898438 376.39111328 C-166.31832031 376.78685547 -165.67765625 377.18259766 -165.01757812 377.59033203 C-160.21011885 380.5250267 -160.21011885 380.5250267 -154.80664062 381.16064453 C-151.48285749 379.77632048 -149.95754545 378.38895489 -147.95898438 375.39111328 C-146.77897865 368.31107895 -151.12759371 363.00688542 -155.00195312 357.47314453 C-156.38596292 355.56477401 -157.78104917 353.66436474 -159.18945312 351.77392578 C-160.49542673 350.01532998 -161.7439217 348.2137073 -162.95898438 346.39111328 C-166.44809816 346.39111328 -167.16668593 347.00433395 -169.90820312 349.02392578 Z M173.04101562 357.39111328 C169.02297595 362.25352362 165.91331596 366.87843057 166.04101562 373.39111328 C166.92431206 375.93069562 166.92431206 375.93069562 169.04101562 377.39111328 C173.17133831 378.01066168 174.68762694 377.64004116 178.14648438 375.20361328 C179.18685831 374.28059458 180.21407138 373.34255655 181.22851562 372.39111328 C186.68121833 367.39111328 186.68121833 367.39111328 190.04101562 367.39111328 C189.73038348 370.80806693 189.4222316 372.90097845 187.29101562 375.64111328 C185.04101562 377.39111328 185.04101562 377.39111328 182.41601562 378.32861328 C179.78844895 379.20300315 179.78844895 379.20300315 178.72851562 382.01611328 C178.50164062 382.79986328 178.27476562 383.58361328 178.04101562 384.39111328 C183.74127716 384.04909759 187.24157823 382.61757678 191.04101562 378.39111328 C194.61580546 373.94199405 195.48449327 370.06032672 195.47460938 364.40673828 C194.92947282 361.87258998 194.09106704 360.94329507 192.04101562 359.39111328 C187.49742606 359.17978353 185.18918746 360.88913543 181.91601562 363.76611328 C181.2740625 364.37197266 180.63210938 364.97783203 179.97070312 365.60205078 C178.05327402 367.37974821 176.26343159 369.00768165 174.04101562 370.39111328 C173.05101562 370.06111328 172.06101562 369.73111328 171.04101562 369.39111328 C173.16114583 364.20857279 175.45021752 362.4190865 180.04101562 359.39111328 C181.45292127 356.78674095 181.45292127 356.78674095 182.04101562 354.39111328 C177.5330243 354.39111328 176.51837505 354.6589023 173.04101562 357.39111328 Z M149.04101562 386.39111328 C147.11852295 388.93329268 145.75334409 391.27073636 145.04101562 394.39111328 C145.62182738 397.8130264 145.62182738 397.8130264 147.04101562 400.39111328 C150.12123328 401.4178525 152.23614651 401.73141759 155.26757812 400.44970703 C157.57114054 399.15924983 159.81372775 397.80885187 162.04101562 396.39111328 C166.90308459 393.39111328 166.90308459 393.39111328 169.04101562 393.39111328 C169.39079598 396.5391365 169.34785905 397.96153249 167.47851562 400.57861328 C165.04101562 402.39111328 165.04101562 402.39111328 161.41601562 403.32861328 C157.84847999 404.02365982 157.84847999 404.02365982 156.60351562 407.01611328 C156.41789062 407.79986328 156.23226563 408.58361328 156.04101562 409.39111328 C162.81321051 409.39111328 166.24960453 407.4047675 171.10742188 402.71533203 C173.98685787 399.25419179 175.6708803 395.91020735 176.04101562 391.39111328 C175.19265039 388.33462042 175.19265039 388.33462042 173.04101562 386.39111328 C170.68850949 385.4746161 169.49758975 385.24315785 167.07617188 386.02783203 C166.42519531 386.37458984 165.77421875 386.72134766 165.10351562 387.07861328 C164.40613281 387.44986328 163.70875 387.82111328 162.99023438 388.20361328 C160.84690343 389.44387497 160.84690343 389.44387497 158.41601562 391.57861328 C155.61024182 393.71986171 153.51466792 394.06798284 150.04101562 394.39111328 C152.61424914 388.81577399 154.56021802 386.58517991 160.33398438 384.41064453 C162.25203046 383.51265251 162.25203046 383.51265251 162.77929688 381.27783203 C162.86566406 380.65521484 162.95203125 380.03259766 163.04101562 379.39111328 C156.75017785 378.85855559 153.35326282 382.15100405 149.04101562 386.39111328 Z M-150.95898438 385.39111328 C-151.61898437 386.05111328 -152.27898437 386.71111328 -152.95898438 387.39111328 C-150.26977309 390.54041259 -150.26977309 390.54041259 -146.45898438 391.82861328 C-143.95898438 392.39111328 -143.95898438 392.39111328 -141.58398438 394.76611328 C-141.04773438 395.63236328 -140.51148438 396.49861328 -139.95898438 397.39111328 C-140.28898437 398.38111328 -140.61898437 399.37111328 -140.95898438 400.39111328 C-144.75809911 399.34635673 -147.72655444 397.96043591 -150.95898438 395.76611328 C-154.42642089 393.52520785 -156.7530537 392.60861455 -160.95898438 393.39111328 C-162.95898438 394.39111328 -162.95898438 394.39111328 -163.95898438 396.39111328 C-164.60525557 399.55066134 -164.48181256 401.48450696 -162.85742188 404.30126953 C-160.09316142 407.90072098 -158.61184799 409.23316241 -154.08398438 410.32861328 C-152.53710938 410.35955078 -152.53710938 410.35955078 -150.95898438 410.39111328 C-151.02085937 411.15423828 -151.08273438 411.91736328 -151.14648438 412.70361328 C-151.20396747 415.41164749 -151.20396747 415.41164749 -149.58398438 417.20361328 C-148.02529655 418.58778548 -148.02529655 418.58778548 -145.95898438 418.39111328 C-144.95073517 416.72942398 -143.95247576 415.06166788 -142.95898438 413.39111328 C-141.422985 411.74104141 -139.85913639 410.11654832 -138.27148438 408.51611328 C-135.37702 405.33361901 -134.07421213 403.88494653 -133.08398438 399.64111328 C-134.66536132 393.76742748 -138.92123946 389.62966358 -143.95898438 386.39111328 C-147.55283492 385.4123779 -147.55283492 385.4123779 -150.95898438 385.39111328 Z M-118.95898438 397.39111328 C-119.61898437 398.71111328 -120.27898437 400.03111328 -120.95898438 401.39111328 C-119.14936861 403.0194309 -119.14936861 403.0194309 -116.95898438 404.39111328 C-115.96898437 404.06111328 -114.97898437 403.73111328 -113.95898438 403.39111328 C-113.95898438 402.07111328 -113.95898438 400.75111328 -113.95898438 399.39111328 C-116.43398437 398.40111328 -116.43398437 398.40111328 -118.95898438 397.39111328 Z M125.22851562 408.20361328 C122.89730384 411.60052189 122.04101562 413.29555819 122.04101562 417.39111328 C123.72468468 423.0363566 126.02513 426.26801469 131.04101562 429.39111328 C136.40209637 430.15698196 139.89289176 429.60894435 144.43554688 426.65673828 C148.22356471 423.67056364 150.69442211 420.8308094 151.85351562 416.01611328 C151.94632812 414.71673828 151.94632812 414.71673828 152.04101562 413.39111328 C148.11025918 413.96564074 148.11025918 413.96564074 145.04101562 416.39111328 C144.71101563 417.40173828 144.38101562 418.41236328 144.04101562 419.45361328 C143.04101562 422.39111328 143.04101562 422.39111328 141.04101562 423.39111328 C137.66279147 423.5348675 135.26710608 423.46647676 132.04101562 422.39111328 C136.65518117 417.47925963 141.97759494 412.42282362 148.04101562 409.39111328 C147.74151546 406.49594498 147.23166731 405.55287835 144.97851562 403.64111328 C137.24280708 400.34932241 130.9852758 402.44685311 125.22851562 408.20361328 Z M-124.95898438 404.39111328 C-126.76946028 406.57565446 -128.53039186 408.77724399 -130.27148438 411.01611328 C-130.75810547 411.63357422 -131.24472656 412.25103516 -131.74609375 412.88720703 C-134.66497265 416.61928638 -137.38329809 420.4144005 -139.95898438 424.39111328 C-137.48398438 426.37111328 -137.48398438 426.37111328 -134.95898438 428.39111328 C-130.95083509 424.5588243 -127.53069685 420.46589007 -124.14648438 416.07861328 C-123.64439453 415.4334375 -123.14230469 414.78826172 -122.625 414.12353516 C-121.39992757 412.54844203 -120.17902118 410.97011012 -118.95898438 409.39111328 C-120.60442218 407.70348477 -122.27187014 406.03707839 -123.95898438 404.39111328 C-124.28898437 404.39111328 -124.61898437 404.39111328 -124.95898438 404.39111328 Z M-114.95898438 413.39111328 C-116.2874866 415.15140132 -116.2874866 415.15140132 -117.56054688 417.44189453 C-118.05039063 418.28558594 -118.54023438 419.12927734 -119.04492188 419.99853516 C-119.5528125 420.89121094 -120.06070313 421.78388672 -120.58398438 422.70361328 C-121.09960938 423.5846875 -121.61523438 424.46576172 -122.14648438 425.37353516 C-125.06516555 430.08146143 -125.06516555 430.08146143 -125.95898438 435.39111328 C-123.14388444 437.66846338 -123.14388444 437.66846338 -119.95898438 437.39111328 C-118.43849451 435.26420236 -117.12551352 433.21260657 -115.83398438 430.95361328 C-111.99862632 424.43075522 -111.99862632 424.43075522 -110.95898438 423.39111328 C-104.81558093 422.93604636 -104.81558093 422.93604636 -101.95898438 424.45361328 C-100.71962194 426.854878 -100.7506759 428.64909356 -101.22851562 431.28564453 C-102.48660802 434.91191085 -104.64431527 437.98870106 -106.77929688 441.15673828 C-107.16859375 441.89408203 -107.55789062 442.63142578 -107.95898438 443.39111328 C-107.62898438 444.38111328 -107.29898438 445.37111328 -106.95898438 446.39111328 C-104.45450922 447.60981257 -104.45450922 447.60981257 -101.95898438 448.39111328 C-100.41406673 445.88250433 -98.89894531 443.36248128 -97.39648438 440.82861328 C-96.95884766 440.12414062 -96.52121094 439.41966797 -96.0703125 438.69384766 C-93.89337101 434.97419172 -92.95041525 432.95381935 -93.01757812 428.54345703 C-94.31490937 424.19928144 -96.15679994 422.78508126 -99.95898438 420.39111328 C-103.91235762 419.45302472 -106.10115463 419.10517003 -109.95898438 420.39111328 C-109.62898438 419.07111328 -109.29898438 417.75111328 -108.95898438 416.39111328 C-111.63146071 414.0482391 -111.63146071 414.0482391 -114.95898438 413.39111328 Z M98.60351562 426.01611328 C95.93318493 430.07501594 95.63804621 432.47488639 96.04101562 437.39111328 C97.51277911 441.72660934 99.37327252 443.95904421 103.22851562 446.45361328 C108.80677458 447.8253163 113.05958099 447.00912145 118.09960938 444.27392578 C121.28188583 442.14358687 123.99730911 440.21803717 125.04101562 436.39111328 C125.208263 433.22415372 125.208263 433.22415372 125.04101562 430.39111328 C122.04695984 430.8596495 122.04695984 430.8596495 119.04101562 432.39111328 C118.29842214 434.70140413 117.62957763 437.03686528 117.04101562 439.39111328 C114.70852052 441.32145406 113.5473257 441.41642879 110.54101562 441.26611328 C107.37114404 440.15665823 106.03799185 439.1012953 104.04101562 436.39111328 C103.04101562 432.89111328 103.04101562 432.89111328 103.04101562 429.39111328 C104.47851562 426.95361328 104.47851562 426.95361328 107.04101562 425.39111328 C109.09114314 425.32403344 111.08818624 425.45651744 113.13476562 425.58251953 C115.4015397 425.55802562 115.4015397 425.55802562 117.54101562 422.89111328 C118.03601563 422.06611328 118.53101563 421.24111328 119.04101562 420.39111328 C111.03341852 417.72191425 104.20664653 419.9819723 98.60351562 426.01611328 Z M68.41601562 439.51611328 C66.35654787 443.82227314 66.29169399 447.70785307 67.04101562 452.39111328 C69.11105077 456.53118357 70.79343079 458.65772388 75.04101562 460.39111328 C80.64122668 461.29641056 85.3823936 460.4418261 90.30664062 457.66455078 C93.07547017 455.63158134 94.56899648 453.46315324 96.04101562 450.39111328 C95.92658307 448.08085054 95.92658307 448.08085054 95.04101562 446.39111328 C92.07083868 447.01921501 92.07083868 447.01921501 89.04101562 448.39111328 C87.8858006 450.86242246 87.8858006 450.86242246 87.04101562 453.39111328 C84.73243796 455.14244806 83.43506302 455.39111328 80.54101562 455.39111328 C76.85830483 453.91802896 75.81484493 451.8730745 74.04101562 448.39111328 C73.34797564 443.34182198 73.34797564 443.34182198 75.25976562 440.71923828 C77.63947836 438.94489107 79.04889655 439.14799015 81.97851562 439.32861328 C85.67450941 439.54602468 87.83595835 439.30224952 91.04101562 437.39111328 C91.04101562 436.73111328 91.04101562 436.07111328 91.04101562 435.39111328 C83.56773635 430.79217219 74.72805847 434.40636431 68.41601562 439.51611328 Z M-34.95898438 438.39111328 C-36.17183314 441.44540401 -36.17183314 441.44540401 -36.95898438 444.39111328 C-38.27898437 444.39111328 -39.59898437 444.39111328 -40.95898438 444.39111328 C-40.62898437 446.04111328 -40.29898438 447.69111328 -39.95898438 449.39111328 C-38.96898437 449.39111328 -37.97898438 449.39111328 -36.95898438 449.39111328 C-37.17554688 450.48810547 -37.39210937 451.58509766 -37.61523438 452.71533203 C-37.8967273 454.16971212 -38.17796379 455.62414185 -38.45898438 457.07861328 C-38.60207031 457.79984375 -38.74515625 458.52107422 -38.89257812 459.26416016 C-39.61470325 463.02952687 -40.14148198 466.53585141 -39.95898438 470.39111328 C-37.97898438 470.72111328 -35.99898437 471.05111328 -33.95898438 471.39111328 C-31.6731354 464.83834621 -31.3530407 458.28709889 -30.95898438 451.39111328 C-28.64898437 451.39111328 -26.33898437 451.39111328 -23.95898438 451.39111328 C-23.62898438 450.07111328 -23.29898438 448.75111328 -22.95898438 447.39111328 C-25.43398437 446.89611328 -25.43398437 446.89611328 -27.95898438 446.39111328 C-27.62898437 444.74111328 -27.29898438 443.09111328 -26.95898438 441.39111328 C-24.64898437 441.39111328 -22.33898437 441.39111328 -19.95898438 441.39111328 C-19.95898438 440.07111328 -19.95898438 438.75111328 -19.95898438 437.39111328 C-22.7449966 436.46244254 -24.56964527 436.22769111 -27.45898438 436.20361328 C-28.23242188 436.18943359 -29.00585938 436.17525391 -29.80273438 436.16064453 C-32.25578493 436.25449801 -32.25578493 436.25449801 -34.95898438 438.39111328 Z M-3.89648438 442.64111328 C-5.69796454 445.60825708 -5.37248997 448.02399628 -4.95898438 451.39111328 C-2.01247892 456.00303486 2.99763389 457.07952175 8.04101562 458.39111328 C10.71200207 458.9629301 13.38212176 459.48815973 16.07226562 459.96142578 C18.04101562 460.39111328 18.04101562 460.39111328 19.04101562 461.39111328 C19.22851562 463.82861328 19.22851562 463.82861328 19.04101562 466.39111328 C16.16019627 469.27193264 12.95132798 469.3234348 9.04101562 469.39111328 C5.76724568 468.5908584 4.5038823 468.10645269 2.66601562 465.26611328 C2.12976563 464.64736328 1.59351563 464.02861328 1.04101562 463.39111328 C-2.58462251 463.05730514 -2.58462251 463.05730514 -5.95898438 463.39111328 C-5.47898297 467.71112594 -4.34395028 469.66433519 -0.95898438 472.39111328 C5.30654579 475.43125748 12.90903581 475.63391031 19.56054688 473.63330078 C23.13830276 471.94730821 26.47560139 470.14810744 28.04101562 466.39111328 C28.14565573 460.72955755 28.14565573 460.72955755 25.06054688 456.28173828 C21.0854387 453.79279603 17.29296461 453.02013897 12.72851562 452.14111328 C11.89255859 451.96837891 11.05660156 451.79564453 10.1953125 451.61767578 C8.14643759 451.19619294 6.09403718 450.79191084 4.04101562 450.39111328 C3.71101562 448.74111328 3.38101563 447.09111328 3.04101562 445.39111328 C8.46876883 443.39724476 11.47463787 443.14315303 17.04101562 445.39111328 C17.55664062 445.94798828 18.07226562 446.50486328 18.60351562 447.07861328 C19.07789063 447.51173828 19.55226563 447.94486328 20.04101562 448.39111328 C23.19023472 448.1582818 23.19023472 448.1582818 26.04101562 447.39111328 C24.7741901 443.48506791 23.60817997 441.48944525 20.04101562 439.39111328 C11.57699906 436.74725561 3.44981853 437.90156302 -3.89648438 442.64111328 Z M-72.95898438 441.39111328 C-75.74776389 444.11384276 -76.77870007 446.79629057 -77.21289062 450.63720703 C-77.11397453 454.08763326 -76.67583256 456.47057053 -74.52929688 459.22705078 C-69.97080121 463.38034683 -65.61356421 465.15409722 -59.45898438 465.70361328 C-54.35579548 465.24797142 -51.32939982 463.65333803 -47.58398438 460.20361328 C-45.42655835 456.4696067 -45.25632299 453.60708159 -45.95898438 449.39111328 C-47.74772509 445.24876637 -50.12950631 442.75398273 -53.95898438 440.39111328 C-60.61742042 438.01226748 -66.76305372 437.62570014 -72.95898438 441.39111328 Z M52.04101562 443.39111328 C52.19699219 444.24833984 52.35296875 445.10556641 52.51367188 445.98876953 C54.57326489 458.08717352 54.57326489 458.08717352 53.04101562 463.39111328 C49.39683823 465.82056488 47.32860291 465.55290903 43.04101562 465.39111328 C42.78707031 464.10333984 42.533125 462.81556641 42.27148438 461.48876953 C41.92452571 459.81023977 41.57683139 458.13186195 41.22851562 456.45361328 C41.06287109 455.60347656 40.89722656 454.75333984 40.7265625 453.87744141 C40.55576172 453.06855469 40.38496094 452.25966797 40.20898438 451.42626953 C40.0571167 450.67740479 39.90524902 449.92854004 39.7487793 449.15698242 C39.51521729 448.57424561 39.28165527 447.99150879 39.04101562 447.39111328 C35.9075183 446.34661417 35.05133306 446.45687684 32.04101562 447.39111328 C32.77456411 458.94466708 32.77456411 458.94466708 37.47460938 469.15673828 C39.97827162 471.12969906 41.87061371 471.27147547 45.04101562 471.39111328 C47.84311329 470.59844782 50.35499029 469.54888282 53.04101562 468.39111328 C53.04101562 467.73111328 53.04101562 467.07111328 53.04101562 466.39111328 C53.70101563 466.39111328 54.36101562 466.39111328 55.04101562 466.39111328 C55.04101562 465.73111328 55.04101562 465.07111328 55.04101562 464.39111328 C55.70101563 464.39111328 56.36101562 464.39111328 57.04101562 464.39111328 C57.37101562 465.38111328 57.70101563 466.37111328 58.04101562 467.39111328 C60.02101563 467.06111328 62.00101562 466.73111328 64.04101562 466.39111328 C63.3967723 463.14079601 62.75034299 459.89091722 62.10351562 456.64111328 C61.92111328 455.72072266 61.73871094 454.80033203 61.55078125 453.85205078 C61.37353516 452.96259766 61.19628906 452.07314453 61.01367188 451.15673828 C60.77015991 449.93132324 60.77015991 449.93132324 60.52172852 448.68115234 C60.07832359 446.56884245 59.58021582 444.48077628 59.04101562 442.39111328 C55.41216238 442.2396203 55.41216238 442.2396203 52.04101562 443.39111328 Z " fill="#FB0E0F" transform="translate(246.958984375,5.60888671875)"/>
<path d="M0 0 C1.02939697 0.5880542 1.02939697 0.5880542 2.07958984 1.18798828 C11.75805814 6.79107021 20.25302273 13.19944272 28.54443359 20.69140625 C30.43677082 22.39266883 32.37569881 24.03720787 34.3125 25.6875 C35.548007 26.78456753 36.77717565 27.88881354 38 29 C38.67933594 29.61359375 39.35867188 30.2271875 40.05859375 30.859375 C62.38931623 52.0357464 79.16599494 83.8392946 85 114 C85.20085205 114.96437988 85.20085205 114.96437988 85.40576172 115.94824219 C90.16934701 139.40715828 89.45932171 163.76614248 84 187 C83.6596875 188.65515625 83.6596875 188.65515625 83.3125 190.34375 C73.94679482 232.95770858 44.11365694 270.97223362 7.90234375 294.35449219 C-13.76756044 307.89319384 -36.81369687 316.63536048 -62 321 C-63.24007812 321.22558594 -64.48015625 321.45117188 -65.7578125 321.68359375 C-100.52445282 327.03514667 -140.94122028 322.15267103 -172 305 C-173.97748394 304.03819923 -175.95676485 303.0800873 -177.9375 302.125 C-192.65175927 294.73968213 -205.62931649 284.7855271 -217.49560547 273.43701172 C-218.49734024 272.4801453 -219.50419302 271.52860794 -220.51611328 270.58251953 C-235.95046307 256.13049094 -249.05767447 237.64032437 -257 218 C-257.33257812 217.21882812 -257.66515625 216.43765625 -258.0078125 215.6328125 C-259.0598167 213.10634571 -260.04105609 210.56326072 -261 208 C-261.39058594 206.95972656 -261.78117187 205.91945313 -262.18359375 204.84765625 C-263.57425358 200.92694864 -264.82680684 196.9904118 -266 193 C-266.23428711 192.21061035 -266.46857422 191.4212207 -266.70996094 190.60791016 C-276.15486161 157.46105048 -273.21708816 116.33107517 -259 85 C-258.5359375 83.89527344 -258.071875 82.79054688 -257.59375 81.65234375 C-248.37559663 60.52740895 -235.22740215 43.20118664 -219 27 C-218.36578125 26.34257812 -217.7315625 25.68515625 -217.078125 25.0078125 C-212.43123218 20.22191007 -207.57353096 15.70026952 -202 12 C-201.34 12 -200.68 12 -200 12 C-200 11.34 -200 10.68 -200 10 C-198.41796875 8.79833984 -198.41796875 8.79833984 -196.1875 7.4609375 C-194.95688843 6.71952515 -194.95688843 6.71952515 -193.70141602 5.96313477 C-192.80994873 5.43905029 -191.91848145 4.91496582 -191 4.375 C-189.63862915 3.56857056 -189.63862915 3.56857056 -188.24975586 2.74584961 C-130.19822016 -31.28506292 -58.92692042 -33.77202183 0 0 Z M-192 25 C-192.94617188 25.71542969 -193.89234375 26.43085938 -194.8671875 27.16796875 C-195.57101563 27.77253906 -196.27484375 28.37710938 -197 29 C-197 29.66 -197 30.32 -197 31 C-197.66 31 -198.32 31 -199 31 C-201.54740285 33.46272464 -203.72900048 36.283452 -206 39 C-207.06154297 40.21429688 -207.06154297 40.21429688 -208.14453125 41.453125 C-231.55393609 68.83925885 -243.13640554 105.28574887 -241 141 C-239.49653328 154.73755863 -231.34068264 168.25882821 -223 179 C-222.26910156 179.9590625 -222.26910156 179.9590625 -221.5234375 180.9375 C-220.41080801 182.34292673 -219.21439654 183.68151233 -218 185 C-217.34 185 -216.68 185 -216 185 C-215.80148438 185.55945313 -215.60296875 186.11890625 -215.3984375 186.6953125 C-213.44073392 189.92169549 -210.67095103 191.76008317 -207.625 193.875 C-206.6822522 194.53471802 -206.6822522 194.53471802 -205.72045898 195.20776367 C-193.03046033 203.91162676 -179.03914538 208.65934806 -164.1875 212.25 C-163.46739746 212.4262793 -162.74729492 212.60255859 -162.00537109 212.78417969 C-158.02486764 213.70509044 -154.50276275 214.0371117 -150.4375 213.875 C-148.1171875 214.0390625 -148.1171875 214.0390625 -146 215 C-143.64169505 218.20914438 -141.9132623 221.5417136 -140.12109375 225.0859375 C-134.91124838 235.17642787 -126.25428772 243.60742279 -117 250 C-115.80503906 250.85271484 -115.80503906 250.85271484 -114.5859375 251.72265625 C-84.91574238 270.93388878 -43.78719603 273.92226254 -9.84228516 267.39257812 C-3.13501481 265.902777 3.44407433 264.04930076 10 262 C10.7007666 261.7844043 11.4015332 261.56880859 12.12353516 261.34667969 C27.41331415 256.97629734 27.41331415 256.97629734 39.3203125 247.71875 C40.12807796 244.48768818 40.67680499 241.30099184 41.125 238 C41.29257812 236.80375 41.46015625 235.6075 41.6328125 234.375 C41.94175222 231.53538388 42.02856022 228.84873022 42 226 C36.29984542 227.09331794 30.63162946 228.29597421 24.97265625 229.5859375 C11.82695923 232.5709503 -1.28017207 235.40510812 -14.625 237.375 C-15.67034912 237.5301709 -16.71569824 237.6853418 -17.79272461 237.84521484 C-30.74875249 239.6589967 -43.67697306 240.21030927 -56.75 240.1875 C-57.79948822 240.18609512 -57.79948822 240.18609512 -58.87017822 240.18466187 C-83.16568624 240.11439561 -111.86436675 238.00876846 -130.6796875 220.578125 C-132 219 -132 219 -133 216 C-132.33282959 215.96559814 -131.66565918 215.93119629 -130.97827148 215.89575195 C-108.42962723 214.65300432 -87.29492312 211.19242584 -66.23779297 202.83691406 C-64.10481997 202.03920171 -61.97875905 201.41121841 -59.78515625 200.8046875 C-55.7339285 199.50876162 -52.98696912 198.1654906 -50 195 C-47.23149804 187.68204754 -46.56213696 179.75351539 -46 172 C-53.61901386 172.51921385 -60.78280658 173.99362675 -68.1875 175.8125 C-93.01689441 181.71557115 -117.52514118 185.05371981 -143 186 C-143.5806813 159.59607984 -130.32506799 140.38037227 -112.890625 121.7734375 C-108.05527483 116.96869081 -102.52362389 112.9692814 -97 109 C-96.73703125 109.89589844 -96.4740625 110.79179687 -96.203125 111.71484375 C-93.55389676 118.94861306 -88.0553935 124.42153174 -82 129 C-79.37935525 126.37935525 -78.8417268 123.97690048 -77.6875 120.453125 C-77.36591919 119.47989288 -77.36591919 119.47989288 -77.0378418 118.48699951 C-76.35290473 116.40981005 -75.67633782 114.33000338 -75 112.25 C-74.54482438 110.86440137 -74.08910126 109.47898246 -73.6328125 108.09375 C-72.78955317 105.53135595 -71.95016659 102.96781506 -71.11328125 100.40332031 C-70.74589844 99.28022461 -70.37851562 98.15712891 -70 97 C-69.50959229 95.34013062 -69.50959229 95.34013062 -69.00927734 93.64672852 C-68 91 -68 91 -65.5390625 89.57421875 C-64.09660156 89.13529297 -64.09660156 89.13529297 -62.625 88.6875 C-61.19027344 88.22923828 -61.19027344 88.22923828 -59.7265625 87.76171875 C-47.4599737 84.33480641 -34.67072654 84.77124111 -23 90 C-21.69482422 90.56074219 -21.69482422 90.56074219 -20.36328125 91.1328125 C-14.92154891 93.64950954 -10.40381338 96.79930629 -5.8125 100.64453125 C-4.11027134 102.19963161 -4.11027134 102.19963161 -2 102 C-2.38928463 103.55713852 -2.7787541 105.11423098 -3.16894531 106.67114258 C-3.52145203 108.08432275 -3.87095306 109.49825535 -4.21777344 110.9128418 C-5.20357039 114.91323337 -6.24163563 118.88747492 -7.37890625 122.84765625 C-11.45567103 137.36915561 -14.77272962 154.1092395 -7 168 C-2.78381116 174.85930939 1.35706421 179.52863912 8 184 C19.96476179 152.72846351 27.73930739 121.46758647 14.37109375 89.05859375 C8.83976378 76.71947305 1.59745907 66.33627146 -10 59 C-10.70125 58.54882812 -11.4025 58.09765625 -12.125 57.6328125 C-26.41055724 49.47653151 -43.56095811 49.83797853 -59.0234375 54.03515625 C-62.04869059 54.95060702 -65.03038437 55.91918583 -68 57 C-68.20753906 56.030625 -68.41507813 55.06125 -68.62890625 54.0625 C-72.81165505 35.48576162 -80.02706681 17.54303888 -96 6 C-129.07034177 -14.69836469 -165.06526045 3.27964596 -192 25 Z " fill="#0403FB" transform="translate(341,106)"/>
<path d="M0 0 C0.84763916 0.57645264 0.84763916 0.57645264 1.71240234 1.16455078 C4.50027539 3.14801437 5.70336881 4.04760643 6.8125 7.375 C5.14189709 21.22895118 1.13656681 33.34087234 -9.85546875 42.22583008 C-11.09128658 43.18355724 -12.33363286 44.13294198 -13.58349609 45.07226562 C-15.82989222 46.8967359 -17.4472617 49.07422178 -19.1875 51.375 C-19.99703125 52.16390625 -20.8065625 52.9528125 -21.640625 53.765625 C-42.80467486 75.44903805 -52.61788048 109.06190148 -55.45458984 138.36328125 C-55.63236663 140.0422373 -55.90170251 141.7110235 -56.1875 143.375 C-65.02473323 147.79361661 -83.70480059 142.24916653 -92.83203125 139.50390625 C-93.93933594 139.13136719 -95.04664063 138.75882813 -96.1875 138.375 C-97.32574219 137.99214844 -98.46398437 137.60929688 -99.63671875 137.21484375 C-112.30395401 132.63933833 -122.96381286 126.85739715 -129.4375 114.6875 C-136.3489223 99.62651289 -138.17029374 81.03672394 -133.5 64.9375 C-132.78628638 63.06060604 -132.02111565 61.2018013 -131.1875 59.375 C-130.84847656 58.6221875 -130.50945312 57.869375 -130.16015625 57.09375 C-123.69639609 44.39625672 -114.0718087 33.49062322 -104.1875 23.375 C-103.63932617 22.80418701 -103.09115234 22.23337402 -102.52636719 21.64526367 C-98.54502764 17.56176693 -94.38816718 13.9630684 -89.8125 10.5625 C-89.12768555 10.05259521 -88.44287109 9.54269043 -87.73730469 9.01733398 C-59.84363181 -11.36479943 -30.70854919 -20.9843167 0 0 Z " fill="#0404FC" transform="translate(244.1875,148.625)"/>
<path d="M0 0 C2 1 2 1 3.0703125 3.94140625 C4.046875 7.29427083 5.0234375 10.64713542 6 14 C10.95 14.33 15.9 14.66 21 15 C17.12038353 18.87961647 14.43416733 21.2157554 10 24 C10.72724594 29.52706913 12.33445973 34.69960141 14 40 C13.25234375 39.50628906 12.5046875 39.01257813 11.734375 38.50390625 C10.25710937 37.54291016 10.25710937 37.54291016 8.75 36.5625 C7.77546875 35.92441406 6.8009375 35.28632813 5.796875 34.62890625 C2.58070439 32.64920972 2.58070439 32.64920972 -1 32 C-3.38213158 33.41275917 -3.38213158 33.41275917 -5.625 35.4375 C-9.82191781 39 -9.82191781 39 -12 39 C-11.86722656 38.41992188 -11.73445313 37.83984375 -11.59765625 37.2421875 C-11.33275391 36.07042969 -11.33275391 36.07042969 -11.0625 34.875 C-10.88847656 34.10929687 -10.71445312 33.34359375 -10.53515625 32.5546875 C-9.94019145 29.71449055 -9.46084848 26.86473381 -9 24 C-9.7940625 23.43410156 -10.588125 22.86820312 -11.40625 22.28515625 C-12.4271875 21.55167969 -13.448125 20.81820313 -14.5 20.0625 C-15.5209375 19.33160156 -16.541875 18.60070312 -17.59375 17.84765625 C-18.78484375 16.93306641 -18.78484375 16.93306641 -20 16 C-20 15.67 -20 15.34 -20 15 C-14.72 15 -9.44 15 -4 15 C-3.71125 13.63875 -3.4225 12.2775 -3.125 10.875 C-2.30268853 7.15697742 -1.28811966 3.58833335 0 0 Z " fill="#FDF206" transform="translate(37,247)"/>
<path d="M0 0 C2.31005869 2.31005869 2.72174103 3.83083657 3.625 6.9375 C4.01558594 8.25041016 4.01558594 8.25041016 4.4140625 9.58984375 C5 12 5 12 5 15 C10.28 15 15.56 15 21 15 C17.40360547 18.59639453 14.13521513 21.13715875 10 24 C10.64187918 29.13503344 11.68272247 33.9943454 13 39 C9.69682428 37.9313255 7.46563798 36.62835158 4.9375 34.3125 C2.36773172 31.74785485 2.36773172 31.74785485 0.07421875 32.1640625 C-2.35565169 33.14333232 -4.08545014 34.42232967 -6.125 36.0625 C-9.78823529 39 -9.78823529 39 -12 39 C-11.86722656 38.41992188 -11.73445313 37.83984375 -11.59765625 37.2421875 C-11.33275391 36.07042969 -11.33275391 36.07042969 -11.0625 34.875 C-10.88847656 34.10929687 -10.71445312 33.34359375 -10.53515625 32.5546875 C-9.94019145 29.71449055 -9.46084848 26.86473381 -9 24 C-9.7940625 23.43410156 -10.588125 22.86820312 -11.40625 22.28515625 C-12.4271875 21.55167969 -13.448125 20.81820313 -14.5 20.0625 C-15.5209375 19.33160156 -16.541875 18.60070312 -17.59375 17.84765625 C-18.78484375 16.93306641 -18.78484375 16.93306641 -20 16 C-20 15.67 -20 15.34 -20 15 C-14.72 15 -9.44 15 -4 15 C-3.67 12.69 -3.34 10.38 -3 8 C-2.14816137 5.25028257 -1.07924619 2.6746536 0 0 Z M0 6 C1 9 1 9 1 9 Z " fill="#FDF306" transform="translate(458,247)"/>
<path d="M0 0 C0.33 0 0.66 0 1 0 C1.01417969 0.64066406 1.02835937 1.28132813 1.04296875 1.94140625 C1.40656881 8.53534244 2.72950643 11.96300759 7 17 C6.34 17.33 5.68 17.66 5 18 C4.30906104 20.57951874 4.30906104 20.57951874 3.875 23.5625 C3.70742188 24.57441406 3.53984375 25.58632813 3.3671875 26.62890625 C3.24601562 27.41136719 3.12484375 28.19382812 3 29 C2.34 29 1.68 29 1 29 C1.33 26.03 1.66 23.06 2 20 C0.35 20.33 -1.3 20.66 -3 21 C-3.0928125 22.6396875 -3.0928125 22.6396875 -3.1875 24.3125 C-4 28 -4 28 -6.25 30 C-9.52123371 31.18953953 -10.77299621 31.29080152 -14 30 C-17.41087644 27.36432275 -18.800186 25.62164356 -20.125 21.5 C-20 18 -20 18 -18.0625 15.0625 C-14.93663186 12.9573235 -14.38175416 12.75184228 -10.875 12.875 C-7.10048537 13.40113543 -7.10048537 13.40113543 -5 11.5 C-4.67 11.005 -4.34 10.51 -4 10 C-4.66 9.34 -5.32 8.68 -6 8 C-4.68 8 -3.36 8 -2 8 C-1.34 5.36 -0.68 2.72 0 0 Z " fill="#F83636" transform="translate(369,417)"/>
<path d="M0 0 C3.00387302 0.22764112 4.41958813 0.57792964 7.0625 2.125 C9.48032349 6.32991042 9.08414573 10.40524622 7.875 15 C5.71836907 17.54874565 3.73743927 18.00241553 0.5 18.625 C-2.89637651 17.95904382 -4.84305775 17.2381461 -7.375 14.875 C-8.89890226 11.82719548 -8.97295129 10.0032235 -8.5 6.625 C-6.52418629 1.98613303 -4.99650868 0.23048145 0 0 Z " fill="#F82B2B" transform="translate(185.5,448.375)"/>
<path d="M0 0 C3.884765 1.29492167 4.48712508 2.87825411 6.625 6.3125 C7.23601562 7.27800781 7.84703125 8.24351562 8.4765625 9.23828125 C9.77965511 11.60055426 10.67424663 13.34161982 11 16 C9.875 18.25 9.875 18.25 8 20 C5.64453125 20.37109375 5.64453125 20.37109375 3 20 C0.83203125 18.20703125 0.83203125 18.20703125 -1.1875 15.8125 C-1.86167969 15.03519531 -2.53585938 14.25789063 -3.23046875 13.45703125 C-4.97863499 11.02966577 -6.02470644 8.81584755 -7 6 C-5.90716423 4.96704564 -4.80029421 3.94892165 -3.6875 2.9375 C-3.07261719 2.36902344 -2.45773438 1.80054688 -1.82421875 1.21484375 C-0.92123047 0.61349609 -0.92123047 0.61349609 0 0 Z " fill="#F73938" transform="translate(82,360)"/>
<path d="M0 0 C1 1 1 1 1.375 3.75 C0.87930229 8.04604679 -0.7441372 9.27416138 -4 12 C-7 14 -7 14 -9.5625 13.75 C-12 13 -12 13 -14 11 C-14.49861288 7.26040339 -14.30182253 5.49185893 -12.3125 2.25 C-8.09586376 -1.8526731 -5.30320069 -2.79891148 0 0 Z " fill="#F91616" transform="translate(405,99)"/>
<path d="M0 0 C0.66 0.33 1.32 0.66 2 1 C2 1.66 2 2.32 2 3 C0 4.625 0 4.625 -2 6 C0.475 6.495 0.475 6.495 3 7 C2.67 7.99 2.34 8.98 2 10 C2 9.34 2 8.68 2 8 C-3.78335449 10.21200952 -7.20211387 11.98136476 -11 17 C-13.4375 18.0625 -13.4375 18.0625 -16 18 C-18.8125 16.1875 -18.8125 16.1875 -21 14 C-21 13.34 -21 12.68 -21 12 C-17.87852455 10.32666842 -14.75226502 8.66248284 -11.625 7 C-10.73554688 6.52304687 -9.84609375 6.04609375 -8.9296875 5.5546875 C-8.07890625 5.10351562 -7.228125 4.65234375 -6.3515625 4.1875 C-5.56604004 3.76855469 -4.78051758 3.34960938 -3.97119141 2.91796875 C-2 2 -2 2 0 2 C0 1.34 0 0.68 0 0 Z " fill="#F54343" transform="translate(175,56)"/>
<path d="M0 0 C0.99 0.99 1.98 1.98 3 3 C2.67 3.33 2.34 3.66 2 4 C2.99 4.66 3.98 5.32 5 6 C4.67 7.98 4.34 9.96 4 12 C3.67 11.01 3.34 10.02 3 9 C3.33 8.34 3.66 7.68 4 7 C1.0005907 8.08160141 1.0005907 8.08160141 -2 10 C-3.22520264 13.00847418 -3.22520264 13.00847418 -4 16 C-7.46998729 18.31332486 -8.92509248 18.33957563 -13 18 C-13.99 17.34 -14.98 16.68 -16 16 C-14.76896264 12.30688792 -13.27687005 11.33302585 -10.25 8.9375 C-9.38890625 8.24527344 -8.5278125 7.55304688 -7.640625 6.83984375 C-5.13717146 5.09557361 -2.8708208 3.99652592 0 3 C0 2.01 0 1.02 0 0 Z " fill="#F53B3B" transform="translate(395,412)"/>
<path d="M0 0 C0.33 0 0.66 0 1 0 C3.29612756 13.6332574 3.29612756 13.6332574 3 20 C1.35 20.33 -0.3 20.66 -2 21 C-4.23257611 18.58137588 -4.97231421 17.3322295 -5.25 14 C-5.04374922 11.52499066 -4.72767897 9.36495665 -4 7 C-3.34 7 -2.68 7 -2 7 C-1.34 4.69 -0.68 2.38 0 0 Z " fill="#F55150" transform="translate(439,164)"/>
<path d="M0 0 C-0.87205215 3.56748607 -1.4574905 5.54546501 -4.3125 7.9375 C-7.43723331 9.17285968 -8.8438367 9.02362053 -12 8 C-12.66 7.67 -13.32 7.34 -14 7 C-14.125 4.625 -14.125 4.625 -14 2 C-11.64651729 -0.35348271 -10.78533309 -0.36468749 -7.5625 -0.6875 C-6.78003906 -0.77386719 -5.99757813 -0.86023437 -5.19140625 -0.94921875 C-3 -1 -3 -1 0 0 Z " fill="#F62D2D" transform="translate(309,51)"/>
<path d="M0 0 C0.58910156 0.21914063 1.17820312 0.43828125 1.78515625 0.6640625 C1.51419178 4.54788664 0.99977173 6.39579314 -1.46484375 9.4765625 C-4.23014856 11.67623678 -5.74729463 12.366844 -9.21484375 12.6640625 C-9.21484375 11.6740625 -9.21484375 10.6840625 -9.21484375 9.6640625 C-10.86484375 9.9940625 -12.51484375 10.3240625 -14.21484375 10.6640625 C-12.57009844 8.96947643 -10.90954224 7.30792004 -9.21484375 5.6640625 C-8.63734375 5.10203125 -8.05984375 4.54 -7.46484375 3.9609375 C-6.86671875 3.40921875 -6.26859375 2.8575 -5.65234375 2.2890625 C-5.09417969 1.76570313 -4.53601563 1.24234375 -3.9609375 0.703125 C-2.21484375 -0.3359375 -2.21484375 -0.3359375 0 0 Z " fill="#F55150" transform="translate(436.21484375,372.3359375)"/>
<path d="M0 0 C0.99 0.33 1.98 0.66 3 1 C3.51587541 4.61112789 3.16798198 5.77602403 0.9375 8.75 C-2.47581154 11.36445139 -4.75994038 11.75058473 -9 12 C-9.33 11.01 -9.66 10.02 -10 9 C-12.01508358 8.26676204 -12.01508358 8.26676204 -14 8 C-13.40832031 7.67386719 -12.81664062 7.34773438 -12.20703125 7.01171875 C-11.02173828 6.35623047 -11.02173828 6.35623047 -9.8125 5.6875 C-8.99136719 5.23503906 -8.17023438 4.78257812 -7.32421875 4.31640625 C-5.5547959 3.31422894 -3.82830058 2.23584821 -2.125 1.125 C-1.42375 0.75375 -0.7225 0.3825 0 0 Z " fill="#F54D4D" transform="translate(414,398)"/>
<path d="M0 0 C5.29397231 0.30542148 8.13397287 1.36827755 12 5 C10.125 8.875 10.125 8.875 9 10 C5.39722105 10.40030877 3.6229538 10.44262507 0.625 8.3125 C-1.28250465 5.59797415 -1.43903308 4.2488448 -1 1 C-0.67 0.67 -0.34 0.34 0 0 Z " fill="#F54646" transform="translate(90,404)"/>
<path d="M0 0 C0.66 0.99 1.32 1.98 2 3 C0.73427767 4.15147661 -0.53777906 5.29599314 -1.8125 6.4375 C-2.87404297 7.39462891 -2.87404297 7.39462891 -3.95703125 8.37109375 C-6 10 -6 10 -9 11 C-9.66 10.34 -10.32 9.68 -11 9 C-10.9375 5.5625 -10.9375 5.5625 -10 2 C-6.62649566 -0.99867052 -4.24053908 -1.6045283 0 0 Z " fill="#F55151" transform="translate(386,413)"/>
<path d="M0 0 C0.66 1.32 1.32 2.64 2 4 C-1.63 6.31 -5.26 8.62 -9 11 C-11 8 -11 8 -10.8125 5 C-10 2 -10 2 -8.875 0.0625 C-5.73656351 -1.71594734 -3.35932018 -0.91617823 0 0 Z " fill="#F55050" transform="translate(124,78)"/>
<path d="M0 0 C2.375 0.625 2.375 0.625 5 2 C6.5 4.8125 6.5 4.8125 7 8 C5.77303272 11.06741819 4.97399836 12.55727347 1.9375 13.9375 C0.9784375 13.9684375 0.9784375 13.9684375 0 14 C-2 12 -2 12 -2.01171875 9.43359375 C-1.90472656 8.44488281 -1.79773438 7.45617187 -1.6875 6.4375 C-1.58824219 5.44621094 -1.48898438 4.45492187 -1.38671875 3.43359375 C-1 1 -1 1 0 0 Z " fill="#F54444" transform="translate(75,139)"/>
<path d="M0 0 C2.9375 0.5 2.9375 0.5 4.8125 1.8125 C5.9375 3.5 5.9375 3.5 5.9375 6.5 C0.4925 8.975 0.4925 8.975 -5.0625 11.5 C-6.3125 8.8125 -6.3125 8.8125 -7.0625 5.5 C-5.15487464 1.84371806 -4.10989429 0.67100315 0 0 Z " fill="#F54E4E" transform="translate(157.0625,53.5)"/>
<path d="M0 0 C0.33 0.99 0.66 1.98 1 3 C3.01508358 3.73323796 3.01508358 3.73323796 5 4 C3.42210402 5.15330947 1.8374518 6.29737927 0.25 7.4375 C-0.63171875 8.07558594 -1.5134375 8.71367187 -2.421875 9.37109375 C-4.74179735 10.83686287 -6.29967423 11.67713496 -9 12 C-9.66 11.67 -10.32 11.34 -11 11 C-10.42141121 7.0945257 -8.73020952 4.80399897 -6 2 C-2.75 0.6875 -2.75 0.6875 0 0 Z " fill="#F54545" transform="translate(408,389)"/>
<path d="M0 0 C1.32 0.33 2.64 0.66 4 1 C5.49828872 4.88235819 4.43110582 7.43449288 3.0625 11.25 C2.68222656 12.32765625 2.30195312 13.4053125 1.91015625 14.515625 C1.60980469 15.33546875 1.30945313 16.1553125 1 17 C0.34 15.68 -0.32 14.36 -1 13 C-1.99 13 -2.98 13 -4 13 C-3.40546697 3.40546697 -3.40546697 3.40546697 0 0 Z " fill="#F54141" transform="translate(66,134)"/>
<path d="M0 0 C0.66 0.33 1.32 0.66 2 1 C-0.3521504 3.522721 -2.70709587 6.04281698 -5.0625 8.5625 C-5.71927734 9.26697266 -6.37605469 9.97144531 -7.05273438 10.69726562 C-9.02619744 12.80682959 -11.01133317 14.90477102 -13 17 C-13.63276855 17.67788574 -14.26553711 18.35577148 -14.91748047 19.05419922 C-15.52092285 19.68471191 -16.12436523 20.31522461 -16.74609375 20.96484375 C-17.27775146 21.52679443 -17.80940918 22.08874512 -18.35717773 22.66772461 C-20.21826606 24.17700667 -21.65999558 24.59584922 -24 25 C-22.625 22.5 -22.625 22.5 -21 20 C-20.34 20 -19.68 20 -19 20 C-19 19.34 -19 18.68 -19 18 C-18.34 18 -17.68 18 -17 18 C-16.73832031 17.40058594 -16.47664063 16.80117187 -16.20703125 16.18359375 C-14.92779812 13.86938236 -13.73749558 12.70340555 -11.6875 11.0625 C-8.60999151 8.52883397 -5.78267893 5.85997557 -3 3 C-2 2 -1 1 0 0 Z " fill="#F47473" transform="translate(91,63)"/>
<path d="M0 0 C1.9375 0.25 1.9375 0.25 4 1 C6.78637633 5.1795645 5.79562512 7.14668677 5 12 C4.34 11.67 3.68 11.34 3 11 C2.67 14.3 2.34 17.6 2 21 C1.67 21 1.34 21 1 21 C-1.39433771 6.78361982 -1.39433771 6.78361982 -1 1 C-0.67 0.67 -0.34 0.34 0 0 Z " fill="#F46867" transform="translate(449,168)"/>
<path d="M0 0 C0.33 0 0.66 0 1 0 C1 4.95 1 9.9 1 15 C2.14855469 14.9278125 3.29710937 14.855625 4.48046875 14.78125 C13.67060608 14.22484302 22.78996524 13.85355068 32 14 C32 14.33 32 14.66 32 15 C27.43831795 15.36527435 22.87558928 15.71528408 18.3125 16.0625 C17.01892578 16.16626953 15.72535156 16.27003906 14.39257812 16.37695312 C13.14541016 16.47041016 11.89824219 16.56386719 10.61328125 16.66015625 C9.46641846 16.74918213 8.31955566 16.83820801 7.13793945 16.92993164 C4.22345719 16.99501033 1.81701008 16.70367574 -1 16 C-1.11138159 10.54230189 -0.91657981 5.38490641 0 0 Z " fill="#6D6DEA" transform="translate(198,276)"/>
<path d="M0 0 C0.66 1.65 1.32 3.3 2 5 C0 7 0 7 -2.15478516 7.22705078 C-3.02409668 7.21657715 -3.8934082 7.20610352 -4.7890625 7.1953125 C-5.73007812 7.18886719 -6.67109375 7.18242188 -7.640625 7.17578125 C-8.62546875 7.15902344 -9.6103125 7.14226563 -10.625 7.125 C-11.61757813 7.11597656 -12.61015625 7.10695313 -13.6328125 7.09765625 C-16.08878134 7.07404116 -18.54427168 7.04110799 -21 7 C-20.67 6.34 -20.34 5.68 -20 5 C-13.4 5 -6.8 5 0 5 C-0.33 4.01 -0.66 3.02 -1 2 C-5.17099059 1.89085953 -5.17099059 1.89085953 -9.25 2.625 C-9.8275 2.74875 -10.405 2.8725 -11 3 C-11.66 2.34 -12.32 1.68 -13 1 C-8.23947038 -0.97387813 -5.03511899 -1.0070238 0 0 Z " fill="#F2A3A3" transform="translate(309,40)"/>
<path d="M0 0 C0.99 0.99 1.98 1.98 3 3 C2.67 3.33 2.34 3.66 2 4 C2.99 4.66 3.98 5.32 5 6 C4.67 7.98 4.34 9.96 4 12 C3.67 11.01 3.34 10.02 3 9 C3.33 8.34 3.66 7.68 4 7 C0.96707046 8.14083176 0.96707046 8.14083176 -2 10 C-2.96906827 12.58414426 -2.96906827 12.58414426 -3 15 C-3.33 15 -3.66 15 -4 15 C-4 12.69 -4 10.38 -4 8 C-5.32 8.33 -6.64 8.66 -8 9 C-4.55384615 4.2 -4.55384615 4.2 -1.75 3.1875 C-1.1725 3.125625 -0.595 3.06375 0 3 C0 2.01 0 1.02 0 0 Z " fill="#F27F7D" transform="translate(395,412)"/>
<path d="M0 0 C1 1 1 1 1.25 3.875 C1 7 1 7 -2 10 C-2 7.03 -2 4.06 -2 1 C-5.51865145 1.3015987 -7.00757452 2.00605962 -9.8125 4.25 C-12.22892903 6.78702992 -12.22892903 6.78702992 -12.3125 9.8125 C-12.1578125 10.8953125 -12.1578125 10.8953125 -12 12 C-12.66 11.67 -13.32 11.34 -14 11 C-14.34338883 7.3085701 -14.27811415 5.45322305 -12.3125 2.25 C-8.09586376 -1.8526731 -5.30320069 -2.79891148 0 0 Z " fill="#F38C8A" transform="translate(405,99)"/>
<path d="M0 0 C0.66 0.33 1.32 0.66 2 1 C2 1.66 2 2.32 2 3 C0 4.625 0 4.625 -2 6 C-0.35 6.33 1.3 6.66 3 7 C2.67 7.99 2.34 8.98 2 10 C2 9.34 2 8.68 2 8 C0.53919067 8.61919078 -0.91857455 9.24556692 -2.375 9.875 C-3.59316406 10.39707031 -3.59316406 10.39707031 -4.8359375 10.9296875 C-7.13802299 11.92446067 -7.13802299 11.92446067 -9 14 C-8.42415568 11.61435923 -7.77772405 9.33317216 -7 7 C-7.66 6.67 -8.32 6.34 -9 6 C-2.25 2 -2.25 2 0 2 C0 1.34 0 0.68 0 0 Z " fill="#F47B7A" transform="translate(175,56)"/>
<path d="M0 0 C0.33 0.66 0.66 1.32 1 2 C0.34 2 -0.32 2 -1 2 C-1.33 3.32 -1.66 4.64 -2 6 C-2.66 6 -3.32 6 -4 6 C-4 6.66 -4 7.32 -4 8 C-5.875 10.125 -5.875 10.125 -8 12 C-8.66 12 -9.32 12 -10 12 C-10 12.66 -10 13.32 -10 14 C-12.31 15.32 -14.62 16.64 -17 18 C-15.68904236 15.10261071 -14.28539071 13.03715911 -12.03125 10.80078125 C-11.46019531 10.23166016 -10.88914063 9.66253906 -10.30078125 9.07617188 C-9.70652344 8.49416016 -9.11226562 7.91214844 -8.5 7.3125 C-7.90574219 6.71888672 -7.31148437 6.12527344 -6.69921875 5.51367188 C-2.28134001 1.14067 -2.28134001 1.14067 0 0 Z " fill="#4E4EF0" transform="translate(149,164)"/>
<path d="M0 0 C0.268125 0.639375 0.53625 1.27875 0.8125 1.9375 C1.88667752 4.33131686 1.88667752 4.33131686 5 5 C4.67 8.3 4.34 11.6 4 15 C3.67 15 3.34 15 3 15 C2.875 8.25 2.875 8.25 4 6 C2.02 6 0.04 6 -2 6 C-2.33 7.98 -2.66 9.96 -3 12 C-3.33 12 -3.66 12 -4 12 C-4.33 8.7 -4.66 5.4 -5 2 C-3.68 2.99 -2.36 3.98 -1 5 C-0.67 3.35 -0.34 1.7 0 0 Z " fill="#F59C9C" transform="translate(205,450)"/>
<path d="M0 0 C1.14864928 3.95935925 0.88397934 6.94842803 0 11 C-0.47566406 11.45890625 -0.95132812 11.9178125 -1.44140625 12.390625 C-3.47483425 14.49030504 -3.92325735 16.38527696 -4.6875 19.1875 C-4.93886719 20.08855469 -5.19023437 20.98960937 -5.44921875 21.91796875 C-5.63097656 22.60503906 -5.81273438 23.29210937 -6 24 C-6.33 24 -6.66 24 -7 24 C-6.46870624 18.02798909 -5.15389059 13.05383257 -2.9375 7.5 C-2.65583984 6.77296875 -2.37417969 6.0459375 -2.08398438 5.296875 C-1.39741552 3.52808745 -0.69986318 1.76356959 0 0 Z " fill="#F29A99" transform="translate(22,160)"/>
<path d="M0 0 C0.33 1.32 0.66 2.64 1 4 C-0.32 4 -1.64 4 -3 4 C-2.938125 4.886875 -2.87625 5.77375 -2.8125 6.6875 C-3.01951982 10.34485017 -3.916074 12.04777151 -6 15 C-7.26072674 12.47854652 -6.81937465 11.71898161 -6.0625 9.0625 C-5.33801871 6.49562919 -5 4.71045725 -5 2 C-3.35 2 -1.7 2 0 2 C0 1.34 0 0.68 0 0 Z " fill="#F17D7C" transform="translate(90,142)"/>
<path d="M0 0 C0.33 0.66 0.66 1.32 1 2 C-3.43967828 7.79624665 -3.43967828 7.79624665 -6.0625 8.75 C-7.0215625 8.87375 -7.0215625 8.87375 -8 9 C-9.3479743 9.63654342 -10.68596724 10.29605388 -12 11 C-8.68542782 6.30435607 -4.63720719 3.27530896 0 0 Z " fill="#F48A89" transform="translate(137,77)"/>
<path d="M0 0 C0.99 0.99 1.98 1.98 3 3 C2.67 3.33 2.34 3.66 2 4 C2.99 4.66 3.98 5.32 5 6 C4.67 7.98 4.34 9.96 4 12 C3.67 11.01 3.34 10.02 3 9 C3.33 8.34 3.66 7.68 4 7 C2.02 7 0.04 7 -2 7 C-1.34 4.69 -0.68 2.38 0 0 Z " fill="#F46161" transform="translate(395,412)"/>
<path d="M0 0 C2.125 0.375 2.125 0.375 4 1 C2.71034824 2.37562854 1.37310707 3.70766393 0 5 C-0.66 5 -1.32 5 -2 5 C-2 7.31 -2 9.62 -2 12 C-2.66 11.01 -3.32 10.02 -4 9 C-2.66666667 2.66666667 -2.66666667 2.66666667 0 0 Z " fill="#F38B8A" transform="translate(66,134)"/>
<path d="M0 0 C1.6415049 3.2830098 0.51888624 6.42545033 0 10 C-1.65 9.67 -3.3 9.34 -5 9 C-5 8.01 -5 7.02 -5 6 C-4.34 6 -3.68 6 -3 6 C-2.690625 5.195625 -2.38125 4.39125 -2.0625 3.5625 C-1 1 -1 1 0 0 Z " fill="#F08484" transform="translate(87,95)"/>
<path d="M0 0 C0.66 0.33 1.32 0.66 2 1 C0.515 3.475 0.515 3.475 -1 6 C0.65 6.33 2.3 6.66 4 7 C4 7.33 4 7.66 4 8 C-1.625 8.25 -1.625 8.25 -5 6 C-3.63016497 2.83884224 -3.0109362 2.0072908 0 0 Z " fill="#F38D8C" transform="translate(123,88)"/>
<path d="M0 0 C0.94875 0.04125 1.8975 0.0825 2.875 0.125 C1.7303125 1.0221875 1.7303125 1.0221875 0.5625 1.9375 C-2.03835259 3.96504112 -2.03835259 3.96504112 -3.8125 5.875 C-5.125 7.125 -5.125 7.125 -7.125 7.125 C-4.56730769 0.18269231 -4.56730769 0.18269231 0 0 Z " fill="#F46E6D" transform="translate(365.125,68.875)"/>
<path d="M0 0 C0.33 0.66 0.66 1.32 1 2 C0.67 2.66 0.34 3.32 0 4 C3.63 3.01 7.26 2.02 11 1 C10.34 2.32 9.68 3.64 9 5 C5.7 5 2.4 5 -1 5 C-1.33 4.34 -1.66 3.68 -2 3 C-1.34 2.01 -0.68 1.02 0 0 Z " fill="#F2908F" transform="translate(403,411)"/>
<path d="M0 0 C0.33 0 0.66 0 1 0 C1 1.65 1 3.3 1 5 C1.66 5.33 2.32 5.66 3 6 C2.01 6.66 1.02 7.32 0 8 C-0.72965366 10.56282742 -0.72965366 10.56282742 -1 13 C-1.99 12.67 -2.98 12.34 -4 12 C-4 11.34 -4 10.68 -4 10 C-3.34 10 -2.68 10 -2 10 C-1.855625 9.0925 -1.71125 8.185 -1.5625 7.25 C-1.13590527 4.78523044 -0.64925779 2.41152893 0 0 Z " fill="#F37575" transform="translate(79,391)"/>
<path d="M0 0 C0.33 0.99 0.66 1.98 1 3 C3.01508358 3.73323796 3.01508358 3.73323796 5 4 C3.35 4.66 1.7 5.32 0 6 C-0.33 5.34 -0.66 4.68 -1 4 C-2.98 4 -4.96 4 -7 4 C-6 2 -6 2 -2.9375 0.875 C-1.4834375 0.441875 -1.4834375 0.441875 0 0 Z " fill="#F48989" transform="translate(408,389)"/>
<path d="M0 0 C0.33 0.66 0.66 1.32 1 2 C3.35599235 2.46751788 3.35599235 2.46751788 6.0625 2.625 C7.44115234 2.73714844 7.44115234 2.73714844 8.84765625 2.8515625 C9.55792969 2.90054688 10.26820313 2.94953125 11 3 C11.33 3.99 11.66 4.98 12 6 C11.15695312 5.75443359 11.15695312 5.75443359 10.296875 5.50390625 C7.86940944 4.97135003 5.73110319 4.90101319 3.25 4.9375 C2.05117188 4.95103516 2.05117188 4.95103516 0.828125 4.96484375 C-0.07679688 4.98224609 -0.07679688 4.98224609 -1 5 C-1 1 -1 1 0 0 Z " fill="#F29D9C" transform="translate(348,49)"/>
<path d="M0 0 C-0.66 1.98 -1.32 3.96 -2 6 C-2.33 5.34 -2.66 4.68 -3 4 C-2.67 3.01 -2.34 2.02 -2 1 C-5.63 1.33 -9.26 1.66 -13 2 C-12.67 1.34 -12.34 0.68 -12 0 C-10.0390625 -0.44921875 -10.0390625 -0.44921875 -7.625 -0.6875 C-6.43777344 -0.81705078 -6.43777344 -0.81705078 -5.2265625 -0.94921875 C-3 -1 -3 -1 0 0 Z " fill="#F6BFBF" transform="translate(309,51)"/>
<path d="M0 0 C0.66 0 1.32 0 2 0 C2 0.99 2 1.98 2 3 C2.63808594 3.04898437 3.27617187 3.09796875 3.93359375 3.1484375 C4.75988281 3.22320312 5.58617187 3.29796875 6.4375 3.375 C7.26121094 3.44460938 8.08492187 3.51421875 8.93359375 3.5859375 C9.95646484 3.79089844 9.95646484 3.79089844 11 4 C11.33 4.66 11.66 5.32 12 6 C8.04 5.67 4.08 5.34 0 5 C0 3.35 0 1.7 0 0 Z " fill="#F2AFAF" transform="translate(137,421)"/>
<path d="M0 0 C1.23556641 0.01740234 1.23556641 0.01740234 2.49609375 0.03515625 C3.32238281 0.04417969 4.14867187 0.05320312 5 0.0625 C5.63808594 0.07410156 6.27617187 0.08570313 6.93359375 0.09765625 C6.93359375 0.75765625 6.93359375 1.41765625 6.93359375 2.09765625 C4.29359375 2.09765625 1.65359375 2.09765625 -1.06640625 2.09765625 C-1.39640625 2.75765625 -1.72640625 3.41765625 -2.06640625 4.09765625 C-2.39640625 3.10765625 -2.72640625 2.11765625 -3.06640625 1.09765625 C-2.06640625 0.09765625 -2.06640625 0.09765625 0 0 Z " fill="#8080F1" transform="translate(210.06640625,320.90234375)"/>
<path d="M0 0 C0.66 0.33 1.32 0.66 2 1 C1.071875 2.1446875 1.071875 2.1446875 0.125 3.3125 C-2.05597052 5.99625809 -2.05597052 5.99625809 -4 9 C-5 6 -5 6 -4.25 3.9375 C-3 2 -3 2 0 0 Z " fill="#F27F7F" transform="translate(422,134)"/>
<path d="M0 0 C0 0.66 0 1.32 0 2 C-1.53125 3.2890625 -1.53125 3.2890625 -3.5 4.625 C-4.1496875 5.07101562 -4.799375 5.51703125 -5.46875 5.9765625 C-5.9740625 6.31429688 -6.479375 6.65203125 -7 7 C-7 6.01 -7 5.02 -7 4 C-2.65714286 0 -2.65714286 0 0 0 Z " fill="#F37473" transform="translate(427,365)"/>
<path d="M0 0 C0.66 0.33 1.32 0.66 2 1 C1.360625 1.556875 0.72125 2.11375 0.0625 2.6875 C-2.19680987 5.22066561 -2.63149047 6.68341424 -3 10 C-5 7 -5 7 -4.875 5 C-3.76097537 2.45365799 -2.30449377 1.48677017 0 0 Z " fill="#F02705" transform="translate(51,267)"/>
<path d="M0 0 C0.33 0.66 0.66 1.32 1 2 C0.34 2 -0.32 2 -1 2 C-1.33 3.32 -1.66 4.64 -2 6 C-3.65 6.33 -5.3 6.66 -7 7 C-2.25 1.125 -2.25 1.125 0 0 Z " fill="#6869EE" transform="translate(149,164)"/>
<path d="M0 0 C0.66 0.33 1.32 0.66 2 1 C0.9024777 3.99324263 0.32317108 4.84610901 -2.625 6.25 C-3.40875 6.4975 -4.1925 6.745 -5 7 C-3.625 4.5 -3.625 4.5 -2 2 C-1.34 2 -0.68 2 0 2 C0 1.34 0 0.68 0 0 Z " fill="#F47F7F" transform="translate(72,81)"/>
<path d="M0 0 C0 0.66 0 1.32 0 2 C-3.78187881 3.83691257 -5.94568308 4.15837626 -10 3 C-4 0 -4 0 0 0 Z " fill="#F18E8D" transform="translate(306,39)"/>
<path d="M0 0 C2.56616632 3.84924948 2.55097676 6.4349304 3 11 C1.5 10 1.5 10 0 8 C-0.27345479 5.28153765 -0.13491285 2.74322801 0 0 Z " fill="#F27E7D" transform="translate(485,184)"/>
</svg>
